<svg id="Layer" enable-background="new 0 0 64 64" height="512" viewBox="0 0 64 64" width="512" xmlns="http://www.w3.org/2000/svg"><circle cx="32" cy="32" fill="#ff7043" r="22"/><g fill="#012e52"><path d="m44.094 16.072c.708.529 1.399 1.129 2.052 1.782s1.252 1.344 1.781 2.052c.393.526.995.804 1.604.804.416 0 .836-.129 1.195-.397.885-.661 1.067-1.914.406-2.799-.644-.862-1.37-1.699-2.158-2.487-.788-.789-1.625-1.516-2.488-2.159-.884-.662-2.137-.479-2.799.406-.66.884-.479 2.137.407 2.798z"/><path d="m52.315 23.307c-1.051.34-1.627 1.468-1.288 2.519 2.324 7.19.453 14.977-4.881 20.32-7.796 7.796-20.488 7.795-28.291.001-7.796-7.805-7.796-20.496-.002-28.291 5.345-5.336 13.132-7.206 20.322-4.882 1.05.337 2.179-.236 2.518-1.288.34-1.051-.237-2.179-1.288-2.519-8.625-2.787-17.966-.543-24.379 5.859-9.354 9.354-9.354 24.582 0 33.948 4.683 4.678 10.83 7.016 16.977 7.016s12.294-2.34 16.972-7.018c6.401-6.411 8.646-15.753 5.857-24.378-.338-1.05-1.463-1.624-2.517-1.287z"/><path d="m40.586 20.586-16.586 16.586v-6.172c0-1.104-.896-2-2-2s-2 .896-2 2v11c0 1.104.896 2 2 2h11c1.104 0 2-.896 2-2s-.896-2-2-2h-6.172l16.586-16.586c.781-.781.781-2.047 0-2.828-.78-.781-2.048-.781-2.828 0z"/></g></svg>