<svg id="Layer" enable-background="new 0 0 64 64" height="512" viewBox="0 0 64 64" width="512" xmlns="http://www.w3.org/2000/svg"><circle cx="32" cy="32" fill="#4dd0e1" r="22"/><g fill="#012e52"><path d="m27 24c-1.104 0-2 .896-2 2v9c0 2.206 1.794 4 4 4h9c1.104 0 2-.896 2-2s-.896-2-2-2h-9v-9c0-1.104-.896-2-2-2z"/><path d="m44.094 16.073c.681.509 1.355 1.094 2.052 1.782.653.653 1.253 1.343 1.782 2.052.393.526.994.804 1.604.804.416 0 .836-.129 1.194-.397.886-.661 1.067-1.914.406-2.799-.644-.863-1.37-1.7-2.169-2.498-.837-.826-1.647-1.529-2.478-2.148-.887-.662-2.139-.479-2.799.406-.66.884-.478 2.137.408 2.798z"/><path d="m31.996 55.99c6.147 0 12.296-2.339 16.979-7.017 6.401-6.412 8.646-15.753 5.858-24.378-.341-1.05-1.466-1.631-2.519-1.288-1.051.339-1.628 1.467-1.288 2.518 2.324 7.19.454 14.977-4.88 20.32-7.807 7.795-20.497 7.796-28.292.001-7.796-7.805-7.796-20.497-.002-28.291 5.345-5.336 13.132-7.205 20.322-4.883 1.052.342 2.179-.237 2.519-1.288s-.237-2.179-1.288-2.518c-8.625-2.788-17.967-.543-24.379 5.859-9.354 9.354-9.354 24.583 0 33.948 4.677 4.678 10.822 7.017 16.97 7.017z"/></g></svg>