<svg id="Layer" enable-background="new 0 0 64 64" height="512" viewBox="0 0 64 64" width="512" xmlns="http://www.w3.org/2000/svg"><path d="m16 10h32c3.314 0 6 2.686 6 6v32c0 3.314-2.686 6-6 6h-32c-3.314 0-6-2.686-6-6v-32c0-3.314 2.686-6 6-6z" fill="#4dd0e1"/><g fill="#012e52"><path d="m48 8h-26c-1.104 0-2 .896-2 2s.896 2 2 2h26c2.206 0 4 1.794 4 4v32c0 2.206-1.794 4-4 4h-32c-2.206 0-4-1.794-4-4v-26c0-1.104-.896-2-2-2s-2 .896-2 2v26c0 4.411 3.589 8 8 8h32c4.411 0 8-3.589 8-8v-32c0-4.411-3.589-8-8-8z"/><path d="m29 42c0 1.104.896 2 2 2h11c1.104 0 2-.896 2-2v-11c0-1.104-.896-2-2-2s-2 .896-2 2v6.172l-16.586-16.586c-.78-.781-2.048-.781-2.828 0-.781.781-.781 2.047 0 2.828l16.586 16.586h-6.172c-1.104 0-2 .896-2 2z"/></g></svg>