<svg id="Layer" enable-background="new 0 0 64 64" height="512" viewBox="0 0 64 64" width="512" xmlns="http://www.w3.org/2000/svg"><circle cx="32" cy="32" fill="#4dd0e1" r="22"/><g fill="#012e52"><path d="m35 39c2.206 0 4-1.794 4-4v-9c0-1.104-.896-2-2-2s-2 .896-2 2v9h-9c-1.104 0-2 .896-2 2s.896 2 2 2z"/><path d="m13.273 20.313c.359.268.778.397 1.194.397.61 0 1.212-.277 1.604-.804.529-.708 1.129-1.399 1.782-2.052s1.344-1.252 2.052-1.781c.886-.661 1.067-1.914.406-2.799-.66-.885-1.914-1.067-2.799-.406-.862.644-1.699 1.37-2.487 2.158-.789.788-1.516 1.625-2.159 2.488-.66.884-.478 2.138.407 2.799z"/><path d="m31.996 55.99c6.146 0 12.296-2.339 16.979-7.016 9.354-9.365 9.354-24.594-.002-33.949-6.412-6.401-15.754-8.647-24.378-5.857-1.051.339-1.628 1.467-1.288 2.518.341 1.05 1.466 1.629 2.519 1.288 7.188-2.324 14.977-.454 20.32 4.881 7.796 7.795 7.796 20.487.001 28.291-7.806 7.796-20.497 7.795-28.291.002-5.336-5.345-7.206-13.132-4.882-20.322.34-1.051-.237-2.179-1.288-2.518-1.054-.343-2.179.237-2.519 1.288-2.788 8.625-.543 17.966 5.859 24.379 4.677 4.676 10.823 7.015 16.97 7.015z"/></g></svg>