<svg id="Layer" enable-background="new 0 0 64 64" height="512" viewBox="0 0 64 64" width="512" xmlns="http://www.w3.org/2000/svg"><circle cx="32" cy="32" fill="#ff7043" r="22"/><g fill="#012e52"><path d="m50.726 43.688c-.885-.661-2.139-.48-2.799.406-.509.681-1.094 1.355-1.782 2.052-.653.653-1.343 1.253-2.052 1.782-.885.661-1.067 1.914-.406 2.799.393.526.995.804 1.604.804.416 0 .836-.129 1.195-.397.863-.644 1.7-1.37 2.498-2.169.826-.837 1.529-1.647 2.148-2.478.661-.885.479-2.138-.406-2.799z"/><path d="m15.026 15.026c-9.354 9.354-9.354 24.582.001 33.948 4.591 4.584 10.683 7.036 16.939 7.036 2.481 0 4.989-.386 7.439-1.178 1.051-.34 1.627-1.468 1.288-2.519-.339-1.052-1.465-1.624-2.518-1.288-7.191 2.325-14.977.454-20.32-4.88-7.796-7.805-7.796-20.496-.001-28.291 7.804-7.796 20.497-7.798 28.291-.002 5.336 5.345 7.207 13.131 4.883 20.321-.34 1.051.237 2.179 1.288 2.519 1.053.336 2.179-.236 2.518-1.288 2.788-8.625.543-17.967-5.859-24.379-9.354-9.355-24.584-9.356-33.949.001z"/><path d="m35 22c0-1.104-.896-2-2-2h-11c-1.104 0-2 .896-2 2v11c0 1.104.896 2 2 2s2-.896 2-2v-6.172l16.586 16.586c.39.391.902.586 1.414.586s1.024-.195 1.414-.586c.781-.781.781-2.047 0-2.828l-16.586-16.586h6.172c1.104 0 2-.896 2-2z"/></g></svg>