<svg id="Layer" enable-background="new 0 0 64 64" height="512" viewBox="0 0 64 64" width="512" xmlns="http://www.w3.org/2000/svg"><circle cx="32" cy="32" fill="#ff7043" r="22"/><g fill="#012e52"><path d="m19.906 47.928c-.709-.529-1.399-1.129-2.053-1.783-.652-.651-1.252-1.342-1.781-2.051-.659-.885-1.915-1.068-2.799-.406-.886.661-1.067 1.914-.406 2.799.645.863 1.371 1.701 2.158 2.486.787.789 1.625 1.516 2.488 2.16.359.269.778.397 1.194.397.61 0 1.212-.277 1.604-.804.663-.884.481-2.137-.405-2.798z"/><path d="m24.595 54.833c2.45.792 4.957 1.178 7.438 1.178 6.256-.001 12.35-2.453 16.94-7.037 4.533-4.532 7.029-10.561 7.029-16.974s-2.496-12.441-7.029-16.974c-4.532-4.533-10.56-7.029-16.973-7.029s-12.441 2.496-16.975 7.03c-6.401 6.411-8.646 15.753-5.858 24.378.341 1.051 1.466 1.627 2.519 1.288 1.051-.34 1.628-1.468 1.288-2.519-2.324-7.19-.454-14.977 4.881-20.32 3.777-3.777 8.801-5.857 14.146-5.857s10.368 2.08 14.146 5.857 5.856 8.801 5.856 14.146-2.08 10.368-5.856 14.145c-5.343 5.336-13.13 7.207-20.321 4.882-1.054-.337-2.18.238-2.519 1.288-.34 1.05.237 2.178 1.288 2.518z"/><path d="m23.414 43.414 16.586-16.586v6.172c0 1.104.896 2 2 2s2-.896 2-2v-11c0-1.104-.896-2-2-2h-11c-1.104 0-2 .896-2 2s.896 2 2 2h6.172l-16.586 16.586c-.781.781-.781 2.047 0 2.828.391.391.902.586 1.414.586s1.023-.195 1.414-.586z"/></g></svg>