<svg id="Layer" enable-background="new 0 0 64 64" height="512" viewBox="0 0 64 64" width="512" xmlns="http://www.w3.org/2000/svg"><path d="m54.832 9.185c-.003-.003-.005-.006-.008-.009-.039-.039-.084-.068-.126-.103-.734-.686-1.679-1.073-2.698-1.073h-23.9c-1.104 0-2 .896-2 2s.896 2 2 2h21.072l-40.586 40.586c-.781.781-.781 2.047 0 2.828.39.391.902.586 1.414.586s1.024-.195 1.414-.586l40.586-40.586v21.072c0 1.104.896 2 2 2s2-.896 2-2v-23.9c0-1.083-.424-2.092-1.158-2.806-.003-.004-.007-.006-.01-.009z" fill="#012e52"/></svg>