<svg id="Layer" enable-background="new 0 0 64 64" height="512" viewBox="0 0 64 64" width="512" xmlns="http://www.w3.org/2000/svg"><circle cx="32" cy="32" fill="#4dd0e1" r="22"/><g fill="#012e52"><path d="m37 40c1.104 0 2-.896 2-2v-9c0-2.206-1.794-4-4-4h-9c-1.104 0-2 .896-2 2s.896 2 2 2h9v9c0 1.104.896 2 2 2z"/><path d="m17.854 46.146c-.654-.654-1.253-1.345-1.782-2.053-.661-.885-1.915-1.067-2.799-.406-.885.661-1.067 1.914-.406 2.799.643.861 1.369 1.698 2.159 2.488.789.789 1.626 1.515 2.487 2.158.359.268.778.397 1.195.397.609 0 1.211-.277 1.604-.804.661-.885.479-2.138-.406-2.799-.707-.527-1.398-1.127-2.052-1.78z"/><path d="m11.685 40.693c1.051-.339 1.627-1.467 1.288-2.518-2.324-7.19-.453-14.977 4.881-20.321 7.801-7.8 20.491-7.8 28.292 0 7.8 7.8 7.8 20.492.001 28.291-5.346 5.336-13.132 7.205-20.322 4.883-1.051-.341-2.178.237-2.518 1.288s.237 2.179 1.288 2.518c2.45.792 4.957 1.178 7.438 1.178 6.256 0 12.35-2.453 16.941-7.037 9.36-9.359 9.36-24.589 0-33.948-9.359-9.36-24.588-9.359-33.95.001-6.401 6.411-8.645 15.752-5.857 24.377.34 1.052 1.467 1.631 2.518 1.288z"/></g></svg>