<svg id="Layer" enable-background="new 0 0 64 64" height="512" viewBox="0 0 64 64" width="512" xmlns="http://www.w3.org/2000/svg"><circle cx="32" cy="32" fill="#ff7043" r="22"/><g fill="#012e52"><path d="m29.283 12.19c1.761-.252 3.672-.252 5.434 0 .097.014.191.021.286.021.979 0 1.834-.72 1.977-1.717.156-1.094-.604-2.107-1.696-2.263-2.137-.304-4.431-.304-6.566 0-1.093.156-1.853 1.169-1.697 2.263.156 1.093 1.171 1.855 2.262 1.696z"/><path d="m42.91 10.619c-.984-.503-2.188-.112-2.691.87-.502.984-.112 2.188.871 2.691 6.729 3.441 10.91 10.269 10.91 17.82 0 11.028-8.972 20-20 20s-20-8.972-20-20c0-7.551 4.181-14.379 10.911-17.819.983-.503 1.373-1.708.87-2.691-.503-.984-1.709-1.373-2.691-.87-8.074 4.127-13.09 12.319-13.09 21.38 0 13.233 10.766 24 24 24 13.233 0 24-10.767 24-24 0-9.061-5.016-17.253-13.09-21.381z"/><path d="m22.586 36.586c-.781.781-.781 2.047 0 2.828l8 8c.39.391.902.586 1.414.586s1.023-.195 1.414-.586l8-8c.781-.781.781-2.047 0-2.828s-2.047-.781-2.828 0l-4.586 4.586v-23.172c0-1.104-.896-2-2-2s-2 .896-2 2v23.172l-4.586-4.586c-.78-.781-2.048-.781-2.828 0z"/></g></svg>