<svg id="Layer" enable-background="new 0 0 64 64" height="512" viewBox="0 0 64 64" width="512" xmlns="http://www.w3.org/2000/svg"><path d="m52 20c1.78 0 2.67 2.15 1.41 3.41l-19.79 20.1c-.75.65-1.87.65-2.62 0l-20.41-20.1c-1.26-1.26-.37-3.41 1.41-3.41z" fill="#ff7043"/><path d="m29.597 44.935c.03.03.062.059.093.086.747.647 1.684.971 2.621.971s1.873-.324 2.62-.971c.039-.035.078-.071.114-.108l19.779-20.089c1.148-1.149 1.489-2.859.868-4.358-.621-1.498-2.07-2.466-3.692-2.466h-40c-1.622 0-3.071.968-3.692 2.466-.621 1.499-.28 3.209.879 4.369zm22.403-22.935-19.691 19.991-20.309-19.991z" fill="#012e52"/></svg>