<svg id="Layer" enable-background="new 0 0 64 64" height="512" viewBox="0 0 64 64" width="512" xmlns="http://www.w3.org/2000/svg"><path d="m16 10h32c3.314 0 6 2.686 6 6v32c0 3.314-2.686 6-6 6h-32c-3.314 0-6-2.686-6-6v-32c0-3.314 2.686-6 6-6z" fill="#ff7043"/><g fill="#012e52"><path d="m48 8h-32c-4.411 0-8 3.589-8 8v32c0 4.411 3.589 8 8 8h32c4.411 0 8-3.589 8-8v-8c0-1.104-.896-2-2-2s-2 .896-2 2v8c0 2.206-1.794 4-4 4h-32c-2.206 0-4-1.794-4-4v-32c0-2.206 1.794-4 4-4h32c2.206 0 4 1.794 4 4v8c0 1.104.896 2 2 2s2-.896 2-2v-8c0-4.411-3.589-8-8-8z"/><path d="m36.396 22.567c-.791-.771-2.059-.754-2.828.037l-6.401 6.571c-1.558 1.558-1.558 4.091-.019 5.63l6.42 6.59c.391.403.911.605 1.432.605.503 0 1.007-.188 1.396-.567.791-.771.808-2.037.037-2.828l-6.42-6.619 6.42-6.59c.77-.792.754-2.058-.037-2.829z"/></g></svg>