<svg id="Layer" enable-background="new 0 0 64 64" height="512" viewBox="0 0 64 64" width="512" xmlns="http://www.w3.org/2000/svg"><circle cx="32" cy="32" fill="#ff7043" r="22"/><g fill="#012e52"><path d="m34.718 51.81c-1.769.254-3.667.254-5.436 0-1.095-.145-2.106.604-2.262 1.698s.604 2.106 1.698 2.263c1.071.152 2.175.229 3.282.229s2.211-.077 3.282-.229c1.093-.156 1.854-1.169 1.698-2.263-.156-1.093-1.168-1.842-2.262-1.698z"/><path d="m32 8c-13.234 0-24 10.767-24 24 0 9.061 5.016 17.253 13.09 21.381.981.5 2.188.113 2.691-.871.503-.983.113-2.188-.871-2.691-6.729-3.44-10.91-10.268-10.91-17.819 0-11.028 8.972-20 20-20s20 8.972 20 20c0 7.551-4.181 14.379-10.91 17.818-.984.503-1.374 1.708-.871 2.691.354.692 1.055 1.09 1.782 1.09.307 0 .617-.07.909-.219 8.074-4.127 13.09-12.319 13.09-21.38 0-13.233-10.766-24-24-24z"/><path d="m40 28c.512 0 1.024-.195 1.414-.586.781-.781.781-2.047 0-2.828l-8-8c-.78-.781-2.048-.781-2.828 0l-8 8c-.781.781-.781 2.047 0 2.828.78.781 2.048.781 2.828 0l4.586-4.586v23.172c0 1.104.896 2 2 2s2-.896 2-2v-23.172l4.586 4.586c.39.391.902.586 1.414.586z"/></g></svg>