<svg id="Layer" enable-background="new 0 0 64 64" height="512" viewBox="0 0 64 64" width="512" xmlns="http://www.w3.org/2000/svg"><path d="m32 56c1.104 0 2-.896 2-2v-39.892l14.552 15.272c.393.412.92.62 1.448.62.496 0 .992-.183 1.379-.552.799-.762.83-2.028.068-2.828l-16.624-17.445c-.632-.631-1.449-.99-2.301-1.097-.167-.046-.34-.078-.522-.078-.185 0-.361.033-.531.08-.848.112-1.673.475-2.327 1.13l-16.59 17.41c-.762.8-.731 2.066.068 2.828.801.764 2.066.731 2.828-.068l14.552-15.341v39.961c0 1.104.896 2 2 2z" fill="#012e52"/></svg>