<svg id="Layer" enable-background="new 0 0 64 64" height="512" viewBox="0 0 64 64" width="512" xmlns="http://www.w3.org/2000/svg"><circle cx="32" cy="32" fill="#4dd0e1" r="22"/><g fill="#012e52"><path d="m40 37c.521 0 1.041-.202 1.433-.604.771-.791.754-2.057-.037-2.828l-6.571-6.401c-.755-.755-1.76-1.171-2.829-1.171-1.07 0-2.075.417-2.812 1.154l-6.58 6.42c-.791.771-.807 2.038-.035 2.828.772.791 2.039.806 2.828.035l6.618-6.419 6.59 6.42c.388.378.892.566 1.395.566z"/><path d="m34.717 51.81c-1.762.252-3.672.252-5.434 0-1.1-.161-2.107.603-2.263 1.697s.604 2.107 1.697 2.263c1.068.152 2.172.23 3.283.23s2.215-.078 3.283-.23c1.093-.156 1.853-1.169 1.697-2.263-.156-1.093-1.163-1.853-2.263-1.697z"/><path d="m32 8c-13.234 0-24 10.767-24 24 0 9.061 5.016 17.253 13.089 21.381.984.501 2.188.113 2.691-.87.503-.984.113-2.188-.87-2.691-6.729-3.441-10.91-10.269-10.91-17.82 0-11.028 8.972-20 20-20s20 8.972 20 20c0 7.551-4.181 14.379-10.911 17.819-.983.503-1.373 1.708-.87 2.691.354.692 1.055 1.09 1.782 1.09.307 0 .618-.071.909-.22 8.074-4.127 13.09-12.319 13.09-21.38 0-13.233-10.766-24-24-24z"/></g></svg>