<svg id="Layer" enable-background="new 0 0 64 64" height="512" viewBox="0 0 64 64" width="512" xmlns="http://www.w3.org/2000/svg"><path d="m53.41 40.59c1.26 1.26.37 3.41-1.41 3.41h-40c-1.78 0-2.67-2.15-1.41-3.41l20.41-20.1c.75-.65 1.87-.65 2.62 0z" fill="#ff7043"/><path d="m12 46h40c1.622 0 3.071-.968 3.692-2.466.621-1.499.28-3.209-.857-4.348l-19.79-20.1c-.036-.037-.075-.073-.114-.108-1.493-1.294-3.746-1.295-5.241 0-.032.028-.063.057-.093.086l-20.422 20.112c-1.148 1.148-1.489 2.859-.868 4.358.622 1.498 2.071 2.466 3.693 2.466zm20.309-23.991 19.71 19.99s-.006.001-.019.001l-40.007.015z" fill="#012e52"/></svg>