<svg id="Layer" enable-background="new 0 0 64 64" height="512" viewBox="0 0 64 64" width="512" xmlns="http://www.w3.org/2000/svg"><path d="m16 10h32c3.314 0 6 2.686 6 6v32c0 3.314-2.686 6-6 6h-32c-3.314 0-6-2.686-6-6v-32c0-3.314 2.686-6 6-6z" fill="#ff7043"/><g fill="#012e52"><path d="m48 8h-32c-4.411 0-8 3.589-8 8v32c0 4.411 3.589 8 8 8h8c1.104 0 2-.896 2-2s-.896-2-2-2h-8c-2.206 0-4-1.794-4-4v-32c0-2.206 1.794-4 4-4h32c2.206 0 4 1.794 4 4v32c0 2.206-1.794 4-4 4h-8c-1.104 0-2 .896-2 2s.896 2 2 2h8c4.411 0 8-3.589 8-8v-32c0-4.411-3.589-8-8-8z"/><path d="m40 37c.521 0 1.041-.202 1.433-.604.771-.791.754-2.058-.037-2.828l-6.571-6.401c-.755-.755-1.76-1.171-2.829-1.171-1.07 0-2.075.416-2.812 1.153l-6.58 6.42c-.791.771-.807 2.038-.035 2.828.772.793 2.039.806 2.828.035l6.618-6.419 6.59 6.42c.388.379.892.567 1.395.567z"/></g></svg>