<svg id="Layer" enable-background="new 0 0 64 64" height="512" viewBox="0 0 64 64" width="512" xmlns="http://www.w3.org/2000/svg"><g fill="#012e52"><path d="m48.586 45.586-3.586 3.586v-39.172c0-1.104-.896-2-2-2s-2 .896-2 2v39.172l-3.586-3.586c-.781-.781-2.047-.781-2.828 0s-.781 2.047 0 2.828l7 7c.391.391.902.586 1.414.586s1.023-.195 1.414-.586l7-7c.781-.781.781-2.047 0-2.828s-2.047-.781-2.828 0z"/><path d="m26.586 45.586-3.586 3.586v-39.172c0-1.104-.896-2-2-2s-2 .896-2 2v39.172l-3.586-3.586c-.781-.781-2.047-.781-2.828 0s-.781 2.047 0 2.828l7 7c.391.391.902.586 1.414.586s1.023-.195 1.414-.586l7-7c.781-.781.781-2.047 0-2.828s-2.047-.781-2.828 0z"/></g></svg>