<svg id="Layer" enable-background="new 0 0 64 64" height="512" viewBox="0 0 64 64" width="512" xmlns="http://www.w3.org/2000/svg"><path d="m48 12v40c0 1.78-2.15 2.67-3.41 1.41l-20.1-20.41c-.65-.75-.65-1.87 0-2.62l20.1-19.79c1.26-1.26 3.41-.37 3.41 1.41z" fill="#ff7043"/><g fill="#012e52"><path d="m18 54v-44c0-1.104-.896-2-2-2s-2 .896-2 2v44c0 1.104.896 2 2 2s2-.896 2-2z"/><path d="m50 52v-40c0-1.623-.968-3.072-2.467-3.692-1.5-.623-3.209-.28-4.347.857l-20.1 19.79c-.037.037-.073.075-.107.115-1.296 1.494-1.296 3.747 0 5.241.027.032.056.063.086.093l20.11 20.421c.768.768 1.786 1.174 2.824 1.174.516 0 1.036-.1 1.533-.306 1.5-.621 2.468-2.07 2.468-3.693zm-23.991-20.309 19.99-19.71s.001.006.001.019l.015 40.007z"/></g></svg>