<svg id="Layer" enable-background="new 0 0 64 64" height="512" viewBox="0 0 64 64" width="512" xmlns="http://www.w3.org/2000/svg"><path d="m46.586 26.414c.391.391.902.586 1.414.586s1.023-.195 1.414-.586l6-6c.781-.781.781-2.047 0-2.828l-6-6c-.781-.781-2.047-.781-2.828 0s-.781 2.047 0 2.828l2.586 2.586h-31.172c-2.662 0-5.173 1.037-7.08 2.931-1.883 1.897-2.92 4.408-2.92 7.069 0 5.514 4.486 10 10 10h28c1.599 0 3.108.625 4.24 1.749 1.135 1.143 1.76 2.652 1.76 4.251 0 3.309-2.691 6-6 6h-36c-1.104 0-2 .896-2 2s.896 2 2 2h36c5.514 0 10-4.486 10-10 0-2.661-1.037-5.172-2.931-7.08-1.897-1.883-4.408-2.92-7.069-2.92h-28c-3.309 0-6-2.691-6-6 0-1.599.625-3.108 1.749-4.241 1.143-1.134 2.652-1.759 4.251-1.759h31.172l-2.586 2.586c-.781.781-.781 2.047 0 2.828z" fill="#012e52"/></svg>