<svg id="Layer" enable-background="new 0 0 64 64" height="512" viewBox="0 0 64 64" width="512" xmlns="http://www.w3.org/2000/svg"><path d="m14 42h36v8c0 2.209-1.791 4-4 4h-28c-2.209 0-4-1.791-4-4z" fill="#e0f7fa"/><g fill="#012e52"><path d="m32 8c-1.104 0-2 .896-2 2v29.172l-6.586-6.586c-.78-.781-2.048-.781-2.828 0-.781.781-.781 2.047 0 2.828l10 10c.39.391.902.586 1.414.586s1.023-.195 1.414-.586l10-10c.781-.781.781-2.047 0-2.828s-2.047-.781-2.828 0l-6.586 6.586v-29.172c0-1.104-.896-2-2-2z"/><path d="m14 40c-1.104 0-2 .896-2 2v8c0 3.309 2.691 6 6 6h28c3.309 0 6-2.691 6-6v-8c0-1.104-.896-2-2-2s-2 .896-2 2v8c0 1.103-.897 2-2 2h-28c-1.103 0-2-.897-2-2v-8c0-1.104-.896-2-2-2z"/></g></svg>