<svg id="Layer" enable-background="new 0 0 64 64" height="512" viewBox="0 0 64 64" width="512" xmlns="http://www.w3.org/2000/svg"><path d="m52 16c1.78 0 2.67 2.15 1.41 3.41l-20.41 20.1c-.75.65-1.87.65-2.62 0l-19.79-20.1c-1.26-1.26-.37-3.41 1.41-3.41z" fill="#ff7043"/><g fill="#012e52"><path d="m54 46h-44c-1.104 0-2 .896-2 2s.896 2 2 2h44c1.104 0 2-.896 2-2s-.896-2-2-2z"/><path d="m52 14h-40c-1.622 0-3.071.968-3.692 2.466-.621 1.499-.28 3.209.857 4.348l19.79 20.1c.036.037.075.073.114.108.747.647 1.684.971 2.62.971.938 0 1.874-.324 2.621-.971.031-.028.063-.057.093-.086l20.421-20.11c1.148-1.149 1.489-2.859.868-4.358-.621-1.5-2.07-2.468-3.692-2.468zm-20.309 23.991-19.71-19.99s.006-.001.019-.001l40.007-.015z"/></g></svg>