<svg id="Layer" enable-background="new 0 0 64 64" height="512" viewBox="0 0 64 64" width="512" xmlns="http://www.w3.org/2000/svg"><circle cx="32" cy="38" fill="#e0f7fa" r="16"/><g fill="#012e52"><path d="m39.874 21.812c-.99-.482-2.19-.07-2.673.925-.482.993-.068 2.19.925 2.673 4.856 2.36 7.874 7.184 7.874 12.59 0 7.72-6.28 14-14 14s-14-6.28-14-14c0-5.397 3.019-10.223 7.877-12.592.992-.484 1.405-1.682.921-2.675-.484-.992-1.68-1.405-2.675-.921-6.244 3.046-10.123 9.249-10.123 16.188 0 9.925 8.075 18 18 18s18-8.075 18-18c0-6.95-3.88-13.153-10.126-16.188z"/><path d="m32 8c-1.104 0-2 .896-2 2v23.172l-1.586-1.586c-.781-.781-2.047-.781-2.828 0s-.781 2.047 0 2.828l5 5c.391.391.902.586 1.414.586s1.023-.195 1.414-.586l5-5c.781-.781.781-2.047 0-2.828s-2.047-.781-2.828 0l-1.586 1.586v-23.172c0-1.104-.896-2-2-2z"/></g></svg>