<svg id="Layer" enable-background="new 0 0 64 64" height="512" viewBox="0 0 64 64" width="512" xmlns="http://www.w3.org/2000/svg"><path d="m28 18h8v28h-8z" fill="#e0f7fa"/><g fill="#012e52"><path d="m14.586 39.414c.39.391.902.586 1.414.586s1.024-.195 1.414-.586c.781-.781.781-2.047 0-2.828l-2.586-2.586h11.172v12c0 1.104.896 2 2 2s2-.896 2-2v-28c0-1.104-.896-2-2-2s-2 .896-2 2v12h-11.172l2.586-2.586c.781-.781.781-2.047 0-2.828-.78-.781-2.048-.781-2.828 0l-6 6c-.781.781-.781 2.047 0 2.828z"/><path d="m49.414 24.586c-.781-.781-2.047-.781-2.828 0s-.781 2.047 0 2.828l2.586 2.586h-11.172v-12c0-1.104-.896-2-2-2s-2 .896-2 2v28c0 1.104.896 2 2 2s2-.896 2-2v-12h11.172l-2.586 2.586c-.781.781-.781 2.047 0 2.828.391.391.902.586 1.414.586s1.023-.195 1.414-.586l6-6c.781-.781.781-2.047 0-2.828z"/></g></svg>