<svg id="Layer" enable-background="new 0 0 64 64" height="512" viewBox="0 0 64 64" width="512" xmlns="http://www.w3.org/2000/svg"><path d="m28 18h8v28h-8z" fill="#e0f7fa" transform="matrix(0 1 -1 0 64 0)"/><g fill="#012e52"><path d="m46 26h-12v-11.172l2.586 2.586c.391.391.902.586 1.414.586s1.023-.195 1.414-.586c.781-.781.781-2.047 0-2.828l-6-6c-.781-.781-2.047-.781-2.828 0l-6 6c-.781.781-.781 2.047 0 2.828s2.047.781 2.828 0l2.586-2.586v11.172h-12c-1.104 0-2 .896-2 2s.896 2 2 2h28c1.104 0 2-.896 2-2s-.896-2-2-2z"/><path d="m46 38c1.104 0 2-.896 2-2s-.896-2-2-2h-28c-1.104 0-2 .896-2 2s.896 2 2 2h12v11.172l-2.586-2.586c-.781-.781-2.047-.781-2.828 0s-.781 2.047 0 2.828l6 6c.391.391.902.586 1.414.586s1.023-.195 1.414-.586l6-6c.781-.781.781-2.047 0-2.828s-2.047-.781-2.828 0l-2.586 2.586v-11.172z"/></g></svg>