<svg id="Layer" enable-background="new 0 0 64 64" height="512" viewBox="0 0 64 64" width="512" xmlns="http://www.w3.org/2000/svg"><path d="m39.51 30.38c.65.75.65 1.87 0 2.62l-20.1 20.41c-1.26 1.26-3.41.37-3.41-1.41v-40c0-1.78 2.15-2.67 3.41-1.41z" fill="#ff7043"/><g fill="#012e52"><path d="m50 54v-44c0-1.104-.896-2-2-2s-2 .896-2 2v44c0 1.104.896 2 2 2s2-.896 2-2z"/><path d="m17.997 55.998c1.04 0 2.063-.409 2.838-1.185l20.1-20.41c.03-.03.059-.061.086-.093 1.296-1.494 1.296-3.747 0-5.241-.034-.04-.07-.078-.107-.115l-20.09-19.778c-1.149-1.148-2.859-1.488-4.357-.868-1.499.62-2.467 2.069-2.467 3.692v40c0 1.623.968 3.072 2.467 3.692.496.206 1.015.306 1.53.306zm.003-43.998 19.991 19.691-19.991 20.309z"/></g></svg>