<svg id="Layer" enable-background="new 0 0 64 64" height="512" viewBox="0 0 64 64" width="512" xmlns="http://www.w3.org/2000/svg"><path d="m28 18h8v28h-8z" fill="#e0f7fa"/><g fill="#012e52"><path d="m10 34h12.172l-2.586 2.586c-.781.781-.781 2.047 0 2.828.39.391.902.586 1.414.586s1.024-.195 1.414-.586l3.586-3.586v10.172c0 1.104.896 2 2 2s2-.896 2-2v-28c0-1.104-.896-2-2-2s-2 .896-2 2v10.172l-3.586-3.586c-.78-.781-2.048-.781-2.828 0-.781.781-.781 2.047 0 2.828l2.585 2.586h-12.171c-1.104 0-2 .896-2 2s.896 2 2 2z"/><path d="m54 30h-12.171l2.585-2.586c.781-.781.781-2.047 0-2.828-.78-.781-2.048-.781-2.828 0l-3.586 3.586v-10.172c0-1.104-.896-2-2-2s-2 .896-2 2v28c0 1.104.896 2 2 2s2-.896 2-2v-10.172l3.586 3.586c.39.391.902.586 1.414.586s1.024-.195 1.414-.586c.781-.781.781-2.047 0-2.828l-2.586-2.586h12.172c1.104 0 2-.896 2-2s-.896-2-2-2z"/></g></svg>