<svg id="Layer" enable-background="new 0 0 64 64" height="512" viewBox="0 0 64 64" width="512" xmlns="http://www.w3.org/2000/svg"><path d="m28 18h8v28h-8z" fill="#e0f7fa" transform="matrix(0 1 -1 0 64 0)"/><g fill="#012e52"><path d="m46 26h-10.172l3.586-3.586c.781-.781.781-2.047 0-2.828s-2.047-.781-2.828 0l-2.586 2.585v-12.171c0-1.104-.896-2-2-2s-2 .896-2 2v12.172l-2.586-2.586c-.781-.781-2.047-.781-2.828 0s-.781 2.047 0 2.828l3.586 3.586h-10.172c-1.104 0-2 .896-2 2s.896 2 2 2h28c1.104 0 2-.896 2-2s-.896-2-2-2z"/><path d="m48 36c0-1.104-.896-2-2-2h-28c-1.104 0-2 .896-2 2s.896 2 2 2h10.172l-3.586 3.586c-.781.781-.781 2.047 0 2.828.391.391.902.586 1.414.586s1.023-.195 1.414-.586l2.586-2.586v12.172c0 1.104.896 2 2 2s2-.896 2-2v-12.172l2.586 2.586c.781.781 2.047.781 2.828 0s.781-2.047 0-2.828l-3.586-3.586h10.172c1.104 0 2-.896 2-2z"/></g></svg>