<svg id="Layer" enable-background="new 0 0 64 64" height="512" viewBox="0 0 64 64" width="512" xmlns="http://www.w3.org/2000/svg"><path d="m47 28v8h-11v11h-8v-11h-11v-8h11v-11h8v11z" fill="#e0f7fa"/><g fill="#012e52"><path d="m28 34h-11c-1.104 0-2 .896-2 2s.896 2 2 2h6.172l-14.586 14.586c-.781.781-.781 2.047 0 2.828.391.391.902.586 1.414.586s1.023-.195 1.414-.586l14.586-14.586v6.172c0 1.104.896 2 2 2s2-.896 2-2v-11c0-1.104-.896-2-2-2z"/><path d="m28 15c-1.104 0-2 .896-2 2v6.172l-14.586-14.586c-.781-.781-2.047-.781-2.828 0s-.781 2.047 0 2.828l14.586 14.586h-6.172c-1.104 0-2 .896-2 2s.896 2 2 2h11c1.104 0 2-.896 2-2v-11c0-1.104-.896-2-2-2z"/><path d="m52.586 8.586-14.586 14.586v-6.172c0-1.104-.896-2-2-2s-2 .896-2 2v11c0 1.104.896 2 2 2h11c1.104 0 2-.896 2-2s-.896-2-2-2h-6.172l14.586-14.586c.781-.781.781-2.047 0-2.828s-2.047-.781-2.828 0z"/><path d="m40.828 38h6.172c1.104 0 2-.896 2-2s-.896-2-2-2h-11c-1.104 0-2 .896-2 2v11c0 1.104.896 2 2 2s2-.896 2-2v-6.172l14.586 14.586c.391.391.902.586 1.414.586s1.023-.195 1.414-.586c.781-.781.781-2.047 0-2.828z"/></g></svg>