<svg id="Layer" enable-background="new 0 0 64 64" height="512" viewBox="0 0 64 64" width="512" xmlns="http://www.w3.org/2000/svg"><g fill="#012e52"><path d="m32 8c-1.104 0-2 .896-2 2v11.172l-4.586-4.586c-.78-.781-2.048-.781-2.828 0-.781.781-.781 2.047 0 2.828l8 8c.39.391.902.586 1.414.586s1.024-.195 1.414-.586l8-8c.781-.781.781-2.047 0-2.828-.78-.781-2.048-.781-2.828 0l-4.586 4.586v-11.172c0-1.104-.896-2-2-2z"/><path d="m8 32c0 1.104.896 2 2 2h11.172l-4.586 4.586c-.781.781-.781 2.047 0 2.828.39.391.902.586 1.414.586s1.024-.195 1.414-.586l8-8c.781-.781.781-2.047 0-2.828l-8-8c-.78-.781-2.048-.781-2.828 0-.781.781-.781 2.047 0 2.828l4.586 4.586h-11.172c-1.104 0-2 .896-2 2z"/><path d="m54 30h-11.172l4.586-4.586c.781-.781.781-2.047 0-2.828-.78-.781-2.048-.781-2.828 0l-8 8c-.781.781-.781 2.047 0 2.828l8 8c.39.391.902.586 1.414.586s1.024-.195 1.414-.586c.781-.781.781-2.047 0-2.828l-4.586-4.586h11.172c1.104 0 2-.896 2-2s-.896-2-2-2z"/><path d="m34 42.828 4.586 4.586c.39.391.902.586 1.414.586s1.024-.195 1.414-.586c.781-.781.781-2.047 0-2.828l-8-8c-.78-.781-2.048-.781-2.828 0l-8 8c-.781.781-.781 2.047 0 2.828.78.781 2.048.781 2.828 0l4.586-4.586v11.172c0 1.104.896 2 2 2s2-.896 2-2z"/></g></svg>