<svg id="Layer" enable-background="new 0 0 64 64" height="512" viewBox="0 0 64 64" width="512" xmlns="http://www.w3.org/2000/svg"><circle cx="32" cy="32" fill="#e0f7fa" r="8"/><g fill="#012e52"><path d="m38.586 19.414c.391.391.902.586 1.414.586s1.023-.195 1.414-.586c.781-.781.781-2.047 0-2.828l-8-8c-.781-.781-2.047-.781-2.828 0l-8 8c-.781.781-.781 2.047 0 2.828s2.047.781 2.828 0l4.586-4.586v11.172c0 1.104.896 2 2 2s2-.896 2-2v-11.172z"/><path d="m47.414 22.586c-.781-.781-2.047-.781-2.828 0s-.781 2.047 0 2.828l4.586 4.586h-11.172c-1.104 0-2 .896-2 2s.896 2 2 2h11.172l-4.586 4.586c-.781.781-.781 2.047 0 2.828.391.391.902.586 1.414.586s1.023-.195 1.414-.586l8-8c.781-.781.781-2.047 0-2.828z"/><path d="m38.586 44.586-4.586 4.586v-11.172c0-1.104-.896-2-2-2s-2 .896-2 2v11.172l-4.586-4.586c-.781-.781-2.047-.781-2.828 0s-.781 2.047 0 2.828l8 8c.391.391.902.586 1.414.586s1.023-.195 1.414-.586l8-8c.781-.781.781-2.047 0-2.828s-2.047-.781-2.828 0z"/><path d="m19.414 22.586c-.781-.781-2.047-.781-2.828 0l-8 8c-.781.781-.781 2.047 0 2.828l8 8c.391.391.902.586 1.414.586s1.023-.195 1.414-.586c.781-.781.781-2.047 0-2.828l-4.586-4.586h11.172c1.104 0 2-.896 2-2s-.896-2-2-2h-11.172l4.586-4.586c.781-.781.781-2.047 0-2.828z"/></g></svg>