<svg id="Layer" enable-background="new 0 0 64 64" height="512" viewBox="0 0 64 64" width="512" xmlns="http://www.w3.org/2000/svg"><circle cx="30" cy="32" fill="#e0f7fa" r="20"/><path d="m52.499 21.679-2.02 2.296c-3.274-8.416-11.318-13.975-20.479-13.975-12.131 0-22 9.869-22 22s9.869 22 22 22c10.426 0 19.493-7.403 21.56-17.603.22-1.083-.48-2.139-1.563-2.357-1.089-.222-2.138.48-2.357 1.563-1.691 8.342-9.109 14.397-17.64 14.397-9.925 0-18-8.075-18-18s8.075-18 18-18c7.337 0 13.797 4.356 16.578 10.995l-2.998-.909c-1.055-.318-2.174.277-2.494 1.334s.277 2.174 1.334 2.494l6.6 2c.191.058.386.086.58.086.565 0 1.115-.24 1.501-.679l4.4-5c.73-.829.649-2.093-.18-2.822-.829-.731-2.094-.649-2.822.18z" fill="#012e52"/></svg>