<svg id="Layer" enable-background="new 0 0 64 64" height="512" viewBox="0 0 64 64" width="512" xmlns="http://www.w3.org/2000/svg"><path d="m18 14h28c2.209 0 4 1.791 4 4v28c0 2.209-1.791 4-4 4h-28c-2.209 0-4-1.791-4-4v-28c0-2.209 1.791-4 4-4z" fill="#e0f7fa"/><g fill="#012e52"><path d="m50 30c1.104 0 2-.896 2-2v-10c0-3.309-2.691-6-6-6h-28c-3.309 0-6 2.691-6 6v5.172l-.586-.586c-.78-.781-2.048-.781-2.828 0-.781.781-.781 2.047 0 2.828l4 4c.39.391.902.586 1.414.586s1.024-.195 1.414-.586l4-4c.781-.781.781-2.047 0-2.828-.78-.781-2.048-.781-2.828 0l-.586.586v-5.172c0-1.103.897-2 2-2h28c1.103 0 2 .897 2 2v10c0 1.104.896 2 2 2z"/><path d="m51.414 34.586c-.78-.781-2.048-.781-2.828 0l-4 4c-.781.781-.781 2.047 0 2.828.78.781 2.048.781 2.828 0l.586-.586v5.172c0 1.103-.897 2-2 2h-28c-1.103 0-2-.897-2-2v-10c0-1.104-.896-2-2-2s-2 .896-2 2v10c0 3.309 2.691 6 6 6h28c3.309 0 6-2.691 6-6v-5.172l.586.586c.39.391.902.586 1.414.586s1.024-.195 1.414-.586c.781-.781.781-2.047 0-2.828z"/></g></svg>