<svg id="Layer" enable-background="new 0 0 64 64" height="512" viewBox="0 0 64 64" width="512" xmlns="http://www.w3.org/2000/svg"><path d="m19 23h26c4.971 0 9 4.029 9 9 0 4.971-4.029 9-9 9h-26c-4.971 0-9-4.029-9-9 0-4.971 4.029-9 9-9z" fill="#e0f7fa"/><g fill="#012e52"><path d="m19 25h9c1.104 0 2-.896 2-2s-.896-2-2-2h-9c-2.946 0-5.709 1.147-7.771 3.222-2.082 2.069-3.229 4.832-3.229 7.778 0 6.065 4.935 11 11 11h4.172l-1.586 1.586c-.781.781-.781 2.047 0 2.828.391.391.902.586 1.414.586s1.023-.195 1.414-.586l5-5c.781-.781.781-2.047 0-2.828l-5-5c-.781-.781-2.047-.781-2.828 0s-.781 2.047 0 2.828l1.586 1.586h-4.172c-3.859 0-7-3.141-7-7 0-1.873.728-3.628 2.059-4.95 1.313-1.322 3.068-2.05 4.941-2.05z"/><path d="m45 21h-4.172l1.586-1.586c.781-.781.781-2.047 0-2.828s-2.047-.781-2.828 0l-5 5c-.781.781-.781 2.047 0 2.828l5 5c.391.391.902.586 1.414.586s1.023-.195 1.414-.586c.781-.781.781-2.047 0-2.828l-1.586-1.586h4.172c1.873 0 3.628.728 4.95 2.059 1.322 1.313 2.05 3.068 2.05 4.941 0 3.859-3.141 7-7 7h-9c-1.104 0-2 .896-2 2s.896 2 2 2h9c6.065 0 11-4.935 11-11 0-2.946-1.147-5.709-3.221-7.77-2.07-2.083-4.833-3.23-7.779-3.23z"/></g></svg>