<svg id="Layer" enable-background="new 0 0 64 64" height="512" viewBox="0 0 64 64" width="512" xmlns="http://www.w3.org/2000/svg"><path d="m24 26h-5.5c-4.694 0-8.5 3.806-8.5 8.5 0 4.694 3.806 8.5 8.5 8.5h5.5z" fill="#e0f7fa"/><path d="m50.414 19.586c-.78-.781-2.048-.781-2.828 0-.781.781-.781 2.047 0 2.828l1.586 1.586h-30.672c-2.805 0-5.441 1.092-7.424 3.076-1.984 1.983-3.076 4.619-3.076 7.424 0 5.79 4.71 10.5 10.5 10.5h5.5c1.104 0 2-.896 2-2s-.896-2-2-2h-5.5c-3.584 0-6.5-2.916-6.5-6.5 0-1.736.676-3.368 1.905-4.596 1.227-1.228 2.859-1.904 4.595-1.904h30.672l-1.586 1.586c-.781.781-.781 2.047 0 2.828.39.391.902.586 1.414.586s1.024-.195 1.414-.586l5-5c.781-.781.781-2.047 0-2.828z" fill="#012e52"/></svg>