<svg id="Layer" enable-background="new 0 0 64 64" height="512" viewBox="0 0 64 64" width="512" xmlns="http://www.w3.org/2000/svg"><path d="m40 43h5.5c4.694 0 8.5-3.806 8.5-8.5 0-4.694-3.806-8.5-8.5-8.5h-5.5z" fill="#e0f7fa"/><path d="m45.5 24h-30.672l1.586-1.586c.781-.781.781-2.047 0-2.828-.78-.781-2.048-.781-2.828 0l-5 5c-.781.781-.781 2.047 0 2.828l5 5c.39.391.902.586 1.414.586s1.024-.195 1.414-.586c.781-.781.781-2.047 0-2.828l-1.586-1.586h30.672c1.735 0 3.367.676 4.596 1.905 1.227 1.227 1.904 2.859 1.904 4.595 0 3.584-2.916 6.5-6.5 6.5h-5.5c-1.104 0-2 .896-2 2s.896 2 2 2h5.5c5.79 0 10.5-4.71 10.5-10.5 0-2.805-1.093-5.441-3.076-7.424-1.984-1.984-4.62-3.076-7.424-3.076z" fill="#012e52"/></svg>