<svg id="Layer" enable-background="new 0 0 64 64" height="512" viewBox="0 0 64 64" width="512" xmlns="http://www.w3.org/2000/svg"><path d="m40 38h5.5c4.694 0 8.5-3.806 8.5-8.5 0-4.694-3.806-8.5-8.5-8.5h-5.5z" fill="#e0f7fa"/><path d="m45.5 19h-5.5c-1.104 0-2 .896-2 2s.896 2 2 2h5.5c3.584 0 6.5 2.916 6.5 6.5 0 1.736-.677 3.368-1.904 4.596-1.229 1.228-2.861 1.904-4.596 1.904h-30.672l1.586-1.586c.781-.781.781-2.047 0-2.828s-2.047-.781-2.828 0l-5 5c-.781.781-.781 2.047 0 2.828l5 5c.391.391.902.586 1.414.586s1.023-.195 1.414-.586c.781-.781.781-2.047 0-2.828l-1.586-1.586h30.672c2.804 0 5.44-1.092 7.424-3.076s3.076-4.619 3.076-7.424c0-5.79-4.71-10.5-10.5-10.5z" fill="#012e52"/></svg>