<svg id="Layer" enable-background="new 0 0 64 64" height="512" viewBox="0 0 64 64" width="512" xmlns="http://www.w3.org/2000/svg"><path d="m52.586 33.586-2.586 2.586v-9.172c0-3.309-2.691-6-6-6h-30c-3.309 0-6 2.691-6 6v10c0 3.309 2.691 6 6 6h20c1.104 0 2-.896 2-2s-.896-2-2-2h-20c-1.103 0-2-.897-2-2v-10c0-1.103.897-2 2-2h30c1.103 0 2 .897 2 2v9.172l-2.586-2.586c-.78-.781-2.048-.781-2.828 0-.781.781-.781 2.047 0 2.828l6 6c.39.391.902.586 1.414.586s1.024-.195 1.414-.586l6-6c.781-.781.781-2.047 0-2.828-.78-.781-2.048-.781-2.828 0z" fill="#012e52"/></svg>