<svg id="Layer" enable-background="new 0 0 64 64" height="512" viewBox="0 0 64 64" width="512" xmlns="http://www.w3.org/2000/svg"><path d="m50.414 35.586c-.781-.781-2.047-.781-2.828 0s-.781 2.047 0 2.828l1.586 1.586h-5.332c-1.829 0-3.534-.82-4.679-2.25l-4.6-5.75 4.6-5.75c1.145-1.43 2.85-2.25 4.679-2.25h5.332l-1.586 1.586c-.781.781-.781 2.047 0 2.828.391.391.902.586 1.414.586s1.023-.195 1.414-.586l5-5c.781-.781.781-2.047 0-2.828l-5-5c-.781-.781-2.047-.781-2.828 0s-.781 2.047 0 2.828l1.586 1.586h-5.332c-3.051 0-5.895 1.367-7.802 3.75l-4.038 5.048-4.038-5.048c-1.907-2.383-4.751-3.75-7.802-3.75h-10.16c-1.104 0-2 .896-2 2s.896 2 2 2h10.16c1.829 0 3.534.82 4.679 2.25l4.6 5.75-4.6 5.75c-1.145 1.43-2.85 2.25-4.679 2.25h-10.16c-1.104 0-2 .896-2 2s.896 2 2 2h10.16c3.051 0 5.895-1.367 7.802-3.75l4.038-5.048 4.038 5.048c1.907 2.383 4.751 3.75 7.802 3.75h5.332l-1.586 1.586c-.781.781-.781 2.047 0 2.828.391.391.902.586 1.414.586s1.023-.195 1.414-.586l5-5c.781-.781.781-2.047 0-2.828z" fill="#012e52"/></svg>