<svg id="Layer" enable-background="new 0 0 64 64" height="512" viewBox="0 0 64 64" width="512" xmlns="http://www.w3.org/2000/svg"><circle cx="32" cy="32" fill="#4dd0e1" r="22.005"/><g fill="#012e52"><path d="m31.999 55.986c6.147 0 12.295-2.338 16.976-7.013 9.349-9.359 9.349-24.588 0-33.947-.001 0-.001-.001-.002-.001-9.358-9.349-24.587-9.348-33.947.001-9.349 9.359-9.349 24.588.002 33.949 4.678 4.674 10.825 7.011 16.971 7.011zm-14.145-38.131c3.9-3.896 9.023-5.844 14.146-5.844 5.122 0 10.245 1.948 14.146 5.843 7.79 7.801 7.791 20.493.001 28.291-7.801 7.791-20.492 7.792-28.291.001-7.793-7.8-7.793-20.492-.002-28.291z"/><path d="m25 43h9c1.104 0 2-.896 2-2s-.896-2-2-2h-9v-9c0-1.104-.896-2-2-2s-2 .896-2 2v9c0 2.206 1.794 4 4 4z"/><path d="m33 35h9c1.104 0 2-.896 2-2s-.896-2-2-2h-9v-9c0-1.104-.896-2-2-2s-2 .896-2 2v9c0 2.206 1.794 4 4 4z"/></g></svg>