<svg id="Layer" enable-background="new 0 0 64 64" height="512" viewBox="0 0 64 64" width="512" xmlns="http://www.w3.org/2000/svg"><circle cx="32" cy="32" fill="#4dd0e1" r="22.005"/><g fill="#012e52"><path d="m32 55.986c6.147 0 12.294-2.337 16.975-7.012 9.349-9.359 9.349-24.588-.002-33.949-9.359-9.349-24.587-9.348-33.946 0 0 0-.001.001-.001.001-9.348 9.359-9.348 24.588.001 33.949 4.679 4.674 10.826 7.011 16.973 7.011zm-14.146-38.132c7.802-7.79 20.493-7.79 28.291 0 7.792 7.8 7.792 20.493.002 28.292-7.801 7.791-20.493 7.791-28.292.001-7.791-7.8-7.791-20.492-.001-28.293z"/><path d="m28 41c0 1.104.896 2 2 2h9c2.206 0 4-1.794 4-4v-9c0-1.104-.896-2-2-2s-2 .896-2 2v9h-9c-1.104 0-2 .896-2 2z"/><path d="m22 35h9c2.206 0 4-1.794 4-4v-9c0-1.104-.896-2-2-2s-2 .896-2 2v9h-9c-1.104 0-2 .896-2 2s.896 2 2 2z"/></g></svg>