<svg id="Layer" enable-background="new 0 0 64 64" height="512" viewBox="0 0 64 64" width="512" xmlns="http://www.w3.org/2000/svg"><circle cx="32" cy="32" fill="#4dd0e1" r="22.005"/><g fill="#012e52"><path d="m32 55.986c6.147 0 12.294-2.337 16.974-7.011 0 0 .001-.001.001-.001 9.348-9.359 9.348-24.588-.001-33.949-9.359-9.347-24.588-9.349-33.949.001-9.348 9.359-9.348 24.588.001 33.949 4.68 4.674 10.827 7.011 16.974 7.011zm-14.146-38.131c3.9-3.896 9.023-5.844 14.147-5.844 5.123 0 10.246 1.948 14.145 5.842 7.791 7.8 7.791 20.492.001 28.292-7.801 7.79-20.493 7.79-28.291 0-7.792-7.799-7.792-20.491-.002-28.29z"/><path d="m23 36c1.104 0 2-.896 2-2v-9h9c1.104 0 2-.896 2-2s-.896-2-2-2h-9c-2.206 0-4 1.794-4 4v9c0 1.104.896 2 2 2z"/><path d="m29 33v9c0 1.104.896 2 2 2s2-.896 2-2v-9h9c1.104 0 2-.896 2-2s-.896-2-2-2h-9c-2.206 0-4 1.794-4 4z"/></g></svg>