<svg id="Layer" enable-background="new 0 0 64 64" height="512" viewBox="0 0 64 64" width="512" xmlns="http://www.w3.org/2000/svg"><circle cx="32" cy="32" fill="#4dd0e1" r="22.005"/><g fill="#012e52"><path d="m15.026 48.975c4.68 4.674 10.826 7.011 16.973 7.011s12.295-2.337 16.976-7.012c9.348-9.359 9.348-24.588-.001-33.949-9.359-9.347-24.588-9.349-33.949.001-9.348 9.359-9.348 24.588 0 33.947 0 .001.001.002.001.002zm2.828-31.12c7.799-7.792 20.492-7.792 28.292-.001 7.791 7.8 7.791 20.493.001 28.292-7.8 7.791-20.492 7.791-28.292.001-7.791-7.802-7.791-20.494-.001-28.292z"/><path d="m30 25h9v9c0 1.104.896 2 2 2s2-.896 2-2v-9c0-2.206-1.794-4-4-4h-9c-1.104 0-2 .896-2 2s.896 2 2 2z"/><path d="m22 33h9v9c0 1.104.896 2 2 2s2-.896 2-2v-9c0-2.206-1.794-4-4-4h-9c-1.104 0-2 .896-2 2s.896 2 2 2z"/></g></svg>