<svg id="Layer" enable-background="new 0 0 64 64" height="512" viewBox="0 0 64 64" width="512" xmlns="http://www.w3.org/2000/svg"><circle cx="32" cy="32" fill="#4dd0e1" r="22"/><g fill="#012e52"><path d="m32 56c13.233 0 24-10.766 24-24s-10.767-24-24-24-24 10.766-24 24 10.767 24 24 24zm0-44c11.028 0 20 8.972 20 20s-8.972 20-20 20-20-8.972-20-20 8.972-20 20-20z"/><path d="m29.167 30.815c.756.766 1.762 1.188 2.833 1.188s2.077-.422 2.805-1.159l6.59-6.41c.792-.77.81-2.036.039-2.828-.77-.793-2.037-.808-2.828-.039l-6.621 6.41-6.59-6.41c-.791-.769-2.059-.753-2.828.039-.771.792-.753 2.058.039 2.828z"/><path d="m29.167 41.815c.756.766 1.762 1.188 2.833 1.188s2.077-.422 2.805-1.159l6.59-6.41c.792-.77.81-2.036.039-2.828-.77-.793-2.037-.808-2.828-.039l-6.621 6.41-6.59-6.41c-.791-.769-2.059-.753-2.828.039-.771.792-.753 2.058.039 2.828z"/></g></svg>