<svg id="Layer" enable-background="new 0 0 64 64" height="512" viewBox="0 0 64 64" width="512" xmlns="http://www.w3.org/2000/svg"><path d="m16 10h32c3.314 0 6 2.686 6 6v32c0 3.314-2.686 6-6 6h-32c-3.314 0-6-2.686-6-6v-32c0-3.314 2.686-6 6-6z" fill="#ff7043"/><g fill="#012e52"><path d="m48 8h-32c-4.411 0-8 3.589-8 8v32c0 4.411 3.589 8 8 8h32c4.411 0 8-3.589 8-8v-8c0-1.104-.896-2-2-2s-2 .896-2 2v8c0 2.206-1.794 4-4 4h-32c-2.206 0-4-1.794-4-4v-32c0-2.206 1.794-4 4-4h32c2.206 0 4 1.794 4 4v8c0 1.104.896 2 2 2s2-.896 2-2v-8c0-4.411-3.589-8-8-8z"/><path d="m42.395 22.566c-.791-.77-2.059-.754-2.828.039l-6.382 6.562c-.766.756-1.188 1.762-1.188 2.833s.422 2.077 1.159 2.805l6.41 6.59c.392.403.913.605 1.434.605.503 0 1.006-.188 1.395-.566.792-.771.81-2.036.039-2.828l-6.41-6.621 6.41-6.59c.77-.792.753-2.058-.039-2.829z"/><path d="m31.395 22.566c-.792-.771-2.058-.754-2.828.039l-6.382 6.562c-.766.756-1.188 1.762-1.188 2.833s.422 2.077 1.159 2.805l6.41 6.59c.392.403.913.605 1.434.605.503 0 1.006-.188 1.395-.566.792-.771.809-2.036.039-2.828l-6.41-6.621 6.41-6.59c.77-.792.753-2.058-.039-2.829z"/></g></svg>