<svg id="Layer" enable-background="new 0 0 64 64" height="512" viewBox="0 0 64 64" width="512" xmlns="http://www.w3.org/2000/svg"><circle cx="32" cy="32" fill="#4dd0e1" r="22"/><g fill="#012e52"><path d="m32 8c-13.233 0-24 10.767-24 24s10.767 24 24 24 24-10.767 24-24-10.767-24-24-24zm0 44c-11.028 0-20-8.972-20-20s8.972-20 20-20 20 8.972 20 20-8.972 20-20 20z"/><path d="m42.395 22.566c-.791-.77-2.059-.754-2.828.039l-6.382 6.562c-.766.756-1.188 1.762-1.188 2.833s.422 2.077 1.159 2.805l6.41 6.59c.392.403.913.605 1.434.605.503 0 1.006-.188 1.395-.566.792-.771.81-2.036.039-2.828l-6.41-6.621 6.41-6.59c.77-.792.753-2.058-.039-2.829z"/><path d="m25.023 31.984 6.41-6.59c.771-.792.753-2.058-.039-2.828-.791-.77-2.059-.754-2.828.039l-6.382 6.562c-.766.756-1.188 1.762-1.188 2.833s.422 2.077 1.159 2.805l6.41 6.59c.393.403.914.605 1.435.605.503 0 1.006-.188 1.395-.566.792-.771.81-2.036.039-2.828z"/></g></svg>