<svg id="Layer" enable-background="new 0 0 64 64" height="512" viewBox="0 0 64 64" width="512" xmlns="http://www.w3.org/2000/svg"><circle cx="32" cy="32" fill="#4dd0e1" r="22"/><g fill="#012e52"><path d="m32 8c-13.233 0-24 10.767-24 24s10.767 24 24 24 24-10.767 24-24-10.767-24-24-24zm0 44c-11.028 0-20-8.972-20-20s8.972-20 20-20 20 8.972 20 20-8.972 20-20 20z"/><path d="m30.844 29.195-6.41-6.59c-.77-.793-2.037-.809-2.828-.039-.792.771-.81 2.036-.039 2.828l6.41 6.621-6.41 6.59c-.771.792-.753 2.058.039 2.828.388.379.891.567 1.394.567.521 0 1.042-.202 1.434-.605l6.382-6.562c.766-.756 1.188-1.762 1.188-2.833s-.423-2.077-1.16-2.805z"/><path d="m35.434 22.605c-.77-.793-2.037-.809-2.828-.039-.792.771-.81 2.036-.039 2.828l6.41 6.621-6.41 6.59c-.771.792-.753 2.058.039 2.828.388.379.891.567 1.394.567.521 0 1.042-.202 1.434-.605l6.382-6.562c.766-.756 1.188-1.762 1.188-2.833s-.422-2.077-1.159-2.805z"/></g></svg>