<svg id="Layer" enable-background="new 0 0 64 64" height="512" viewBox="0 0 64 64" width="512" xmlns="http://www.w3.org/2000/svg"><circle cx="32" cy="32" fill="#4dd0e1" r="22"/><g fill="#012e52"><path d="m32 8c-13.234 0-24 10.766-24 24s10.766 24 24 24 24-10.766 24-24-10.766-24-24-24zm0 44c-11.028 0-20-8.972-20-20s8.972-20 20-20 20 8.972 20 20-8.972 20-20 20z"/><path d="m34.833 33.185c-.756-.766-1.762-1.188-2.833-1.188s-2.077.422-2.805 1.159l-6.59 6.41c-.792.77-.809 2.036-.039 2.828.771.792 2.037.808 2.828.039l6.621-6.41 6.59 6.41c.389.379.892.567 1.395.567.521 0 1.042-.203 1.434-.605.77-.792.753-2.058-.039-2.828z"/><path d="m34.833 22.185c-.756-.766-1.762-1.188-2.833-1.188s-2.077.422-2.805 1.159l-6.59 6.41c-.792.77-.809 2.036-.039 2.828.771.793 2.037.809 2.828.039l6.621-6.41 6.59 6.41c.389.379.892.567 1.395.567.521 0 1.042-.203 1.434-.605.77-.792.753-2.058-.039-2.828z"/></g></svg>