<svg id="Layer" enable-background="new 0 0 64 64" height="512" viewBox="0 0 64 64" width="512" xmlns="http://www.w3.org/2000/svg"><path d="m16 10h32c3.314 0 6 2.686 6 6v32c0 3.314-2.686 6-6 6h-32c-3.314 0-6-2.686-6-6v-32c0-3.314 2.686-6 6-6z" fill="#ff7043"/><g fill="#012e52"><path d="m48 8h-32c-4.411 0-8 3.589-8 8v32c0 4.411 3.589 8 8 8h8c1.104 0 2-.896 2-2s-.896-2-2-2h-8c-2.206 0-4-1.794-4-4v-32c0-2.206 1.794-4 4-4h32c2.206 0 4 1.794 4 4v32c0 2.206-1.794 4-4 4h-8c-1.104 0-2 .896-2 2s.896 2 2 2h8c4.411 0 8-3.589 8-8v-32c0-4.411-3.589-8-8-8z"/><path d="m22.566 42.395c.771.793 2.037.809 2.828.039l6.621-6.41 6.59 6.41c.389.378.892.566 1.395.566.521 0 1.042-.202 1.434-.605.77-.792.753-2.058-.039-2.828l-6.562-6.382c-.756-.766-1.762-1.188-2.833-1.188s-2.077.422-2.805 1.159l-6.59 6.41c-.792.771-.809 2.037-.039 2.829z"/><path d="m25.395 31.434 6.621-6.41 6.59 6.41c.388.378.891.566 1.394.566.521 0 1.042-.202 1.434-.605.77-.792.753-2.058-.039-2.828l-6.562-6.382c-.756-.766-1.762-1.188-2.833-1.188s-2.077.422-2.805 1.159l-6.59 6.41c-.792.771-.809 2.036-.039 2.828.771.793 2.038.809 2.829.04z"/></g></svg>