<svg id="Layer" enable-background="new 0 0 64 64" height="512" viewBox="0 0 64 64" width="512" xmlns="http://www.w3.org/2000/svg"><path d="m53.41 44.59c1.26 1.26.37 3.41-1.41 3.41h-40c-1.78 0-2.67-2.15-1.41-3.41l19.79-20.1c.75-.65 1.87-.65 2.62 0z" fill="#ff7043"/><g fill="#012e52"><path d="m54 14h-44c-1.104 0-2 .896-2 2s.896 2 2 2h44c1.104 0 2-.896 2-2s-.896-2-2-2z"/><path d="m12 50h40c1.622 0 3.071-.968 3.692-2.466.621-1.499.28-3.209-.879-4.369l-20.41-20.1c-.03-.03-.062-.059-.093-.086-1.492-1.293-3.745-1.295-5.241 0-.039.035-.078.071-.114.108l-19.779 20.089c-1.148 1.149-1.489 2.859-.868 4.358.621 1.498 2.07 2.466 3.692 2.466zm19.691-23.991 20.309 19.991h-40z"/></g></svg>