<?xml version="1.0" encoding="iso-8859-1"?>
<!-- Generator: Adobe Illustrator 19.0.0, SVG Export Plug-In . SVG Version: 6.00 Build 0)  -->
<svg version="1.1" id="Layer_1" xmlns="http://www.w3.org/2000/svg" xmlns:xlink="http://www.w3.org/1999/xlink" x="0px" y="0px"
	 viewBox="0 0 512 512" style="enable-background:new 0 0 512 512;" xml:space="preserve">
<circle style="fill:#B5F1F4;" cx="256" cy="256" r="256"/>
<path style="fill:#84DBFF;" d="M512,256c0-8.514-0.426-16.929-1.238-25.229L401.137,121.26L286.456,244.795l-146.47,161.94
	l104.839,105.007c3.706,0.159,7.428,0.257,11.174,0.257C397.384,512,512,397.384,512,256z"/>
<path style="fill:#324A5E;" d="M401.113,121.232c-3.232-3.232-7.618-5.049-12.19-5.049h-79.234c-6.971,0-13.259,4.201-15.927,10.642
	c-2.669,6.442-1.193,13.857,3.736,18.787l27.427,27.427L115.609,382.355l24.379,24.381l209.318-209.315l27.427,27.427
	c3.3,3.298,7.708,5.049,12.195,5.049c2.22,0,4.46-0.429,6.592-1.312c6.442-2.669,10.642-8.954,10.642-15.927v-79.234
	C406.161,128.85,404.346,124.466,401.113,121.232z"/>
<path style="fill:#2B3B4E;" d="M401.113,121.232c-0.193-0.193-0.402-0.364-0.603-0.546L127.224,393.971l12.762,12.764
	L349.305,197.42l27.427,27.427c3.3,3.298,7.708,5.049,12.195,5.049c2.22,0,4.46-0.429,6.592-1.312
	c6.442-2.669,10.642-8.954,10.642-15.927v-79.234C406.161,128.85,404.346,124.466,401.113,121.232z"/>
<g>
</g>
<g>
</g>
<g>
</g>
<g>
</g>
<g>
</g>
<g>
</g>
<g>
</g>
<g>
</g>
<g>
</g>
<g>
</g>
<g>
</g>
<g>
</g>
<g>
</g>
<g>
</g>
<g>
</g>
</svg>
