<?xml version="1.0" encoding="iso-8859-1"?>
<!-- Generator: Adobe Illustrator 19.0.0, SVG Export Plug-In . SVG Version: 6.00 Build 0)  -->
<svg version="1.1" id="Layer_1" xmlns="http://www.w3.org/2000/svg" xmlns:xlink="http://www.w3.org/1999/xlink" x="0px" y="0px"
	 viewBox="0 0 512 512" style="enable-background:new 0 0 512 512;" xml:space="preserve">
<circle style="fill:#FFD15D;" cx="256" cy="256" r="256"/>
<path style="fill:#F9B54C;" d="M142.277,394.104l118.687,117.832C400.056,509.288,512,395.724,512,256
	c0-1.703-0.031-3.398-0.064-5.092L387.017,124.983L260.26,159.368l43.142,43.142l-40.22,37.543L142.277,394.104z"/>
<polygon style="fill:#D83E20;" points="259.493,124.983 259.493,159.461 328.159,159.461 117.898,369.724 142.277,394.104 
	352.539,183.842 352.539,252.509 387.017,252.509 387.017,124.983 "/>
<polygon style="fill:#C1321F;" points="129.8,381.626 142.277,394.104 352.539,183.842 352.539,252.509 387.017,252.509 
	387.017,124.983 387.017,124.983 "/>
<g>
</g>
<g>
</g>
<g>
</g>
<g>
</g>
<g>
</g>
<g>
</g>
<g>
</g>
<g>
</g>
<g>
</g>
<g>
</g>
<g>
</g>
<g>
</g>
<g>
</g>
<g>
</g>
<g>
</g>
</svg>
