<?xml version="1.0" encoding="iso-8859-1"?>
<!-- Generator: Adobe Illustrator 19.0.0, SVG Export Plug-In . SVG Version: 6.00 Build 0)  -->
<svg version="1.1" id="Layer_1" xmlns="http://www.w3.org/2000/svg" xmlns:xlink="http://www.w3.org/1999/xlink" x="0px" y="0px"
	 viewBox="0 0 512.002 512.002" style="enable-background:new 0 0 512.002 512.002;" xml:space="preserve">
<circle style="fill:#05BEA6;" cx="256.001" cy="256" r="256"/>
<path style="fill:#00A49A;" d="M512.001,256c0-0.098-0.003-0.195-0.003-0.293L383.859,127.569l-81.782,91.039l-84.144-84.144
	l-66.155,60.983l-15.767,24.188l79.055,79.182l-87.093,85.347L255.42,511.995c0.195,0,0.386,0.007,0.581,0.007
	C397.385,512,512.001,397.384,512.001,256z"/>
<path style="fill:#FFFFFF;" d="M381.132,302.74c-0.772-6.561-5.227-12.102-11.467-14.267c-6.244-2.167-13.171-0.576-17.842,4.096
	l-17.436,17.436L280.382,256l54.005-54.005l17.437,17.437c3.288,3.287,7.694,5.049,12.193,5.049c1.893,0,3.801-0.312,5.649-0.953
	c6.241-2.167,10.695-7.708,11.467-14.267l7.916-67.17c0.617-5.242-1.198-10.476-4.93-14.208c-3.731-3.729-8.964-5.542-14.207-4.93
	l-67.169,7.918c-6.561,0.774-12.104,5.229-14.269,11.469s-0.574,13.171,4.096,17.842l17.436,17.436l-54.007,54.003l-54.005-54.005
	l17.436-17.437c4.67-4.672,6.261-11.6,4.096-17.842s-7.708-10.695-14.269-11.469l-67.169-7.916
	c-5.244-0.615-10.476,1.198-14.208,4.93c-3.732,3.732-5.548,8.968-4.93,14.208l7.916,67.169c0.772,6.561,5.227,12.102,11.467,14.267
	c1.85,0.641,3.756,0.953,5.649,0.953c4.498,0,8.906-1.76,12.193-5.049l17.436-17.436l54.005,54.005l-54.005,54.005l-17.437-17.436
	c-4.67-4.67-11.6-6.261-17.842-4.096c-6.241,2.167-10.695,7.708-11.467,14.267l-7.916,67.169c-0.617,5.242,1.198,10.476,4.93,14.208
	c3.251,3.251,7.644,5.049,12.188,5.049c0.671,0,1.345-0.038,2.019-0.117l67.169-7.918c6.561-0.774,12.104-5.229,14.269-11.469
	c2.165-6.241,0.574-13.171-4.096-17.842l-17.436-17.436l54.005-54.005l54.005,54.005l-17.436,17.436
	c-4.67,4.672-6.261,11.6-4.096,17.842c2.165,6.242,7.708,10.695,14.269,11.469l67.169,7.916c0.674,0.079,1.348,0.117,2.019,0.117
	c4.544,0,8.938-1.798,12.19-5.049c3.732-3.732,5.548-8.968,4.93-14.208L381.132,302.74z"/>
<path style="fill:#E6F3FF;" d="M256.001,280.381l54.005,54.005l-17.436,17.436c-4.67,4.672-6.261,11.6-4.096,17.842
	s7.708,10.695,14.269,11.469l67.169,7.916c0.674,0.079,1.348,0.117,2.019,0.117c4.544,0,8.938-1.798,12.19-5.049
	c3.732-3.732,5.548-8.968,4.93-14.208l-7.916-67.169c-0.772-6.561-5.227-12.102-11.467-14.267
	c-6.244-2.167-13.171-0.576-17.842,4.096l-17.436,17.436L280.382,256l54.005-54.005l17.437,17.437
	c3.288,3.287,7.694,5.049,12.193,5.049c1.893,0,3.801-0.312,5.649-0.953c6.241-2.167,10.695-7.708,11.467-14.267l7.916-67.17
	c0.617-5.242-1.198-10.476-4.93-14.208c-3.731-3.729-8.964-5.542-14.207-4.93l-67.169,7.918
	c-6.561,0.774-12.104,5.229-14.269,11.469s-0.574,13.171,4.096,17.842l17.436,17.436l-54.007,54.003V280.381z"/>
<g>
</g>
<g>
</g>
<g>
</g>
<g>
</g>
<g>
</g>
<g>
</g>
<g>
</g>
<g>
</g>
<g>
</g>
<g>
</g>
<g>
</g>
<g>
</g>
<g>
</g>
<g>
</g>
<g>
</g>
</svg>
