<?xml version="1.0" encoding="iso-8859-1"?>
<!-- Generator: Adobe Illustrator 19.0.0, SVG Export Plug-In . SVG Version: 6.00 Build 0)  -->
<svg version="1.1" id="Layer_1" xmlns="http://www.w3.org/2000/svg" xmlns:xlink="http://www.w3.org/1999/xlink" x="0px" y="0px"
	 viewBox="0 0 512 512" style="enable-background:new 0 0 512 512;" xml:space="preserve">
<circle style="fill:#FC6F58;" cx="256" cy="256" r="256"/>
<path style="fill:#F1543F;" d="M504.601,317.269L364.856,176.7L206.614,326.742l-59.551,43.575l140.09,139.793
	C393.392,497.219,479.549,419.259,504.601,317.269z"/>
<path style="fill:#FFFFFF;" d="M231.6,310.296L364.856,176.7l-24.379-24.04L207.22,285.917l-25.598-25.598
	c-4.672-4.674-11.6-6.263-17.842-4.096c-6.241,2.167-10.695,7.708-11.467,14.267l-10.097,85.673
	c-0.617,5.242,1.198,10.476,4.93,14.208c3.251,3.251,7.646,5.049,12.19,5.049c0.671,0,1.345-0.038,2.019-0.117l85.675-10.097
	c6.561-0.774,12.104-5.229,14.269-11.469c2.165-6.241,0.574-13.171-4.096-17.842L231.6,310.296z"/>
<path style="fill:#E6F3FF;" d="M353.068,165.254L147.566,370.755c3.206,3,7.411,4.667,11.766,4.667c0.671,0,1.345-0.038,2.019-0.117
	l85.675-10.097c6.561-0.774,12.104-5.229,14.269-11.469c2.165-6.241,0.574-13.171-4.096-17.842L231.6,310.298l133.256-133.596
	L353.068,165.254z"/>
<g>
</g>
<g>
</g>
<g>
</g>
<g>
</g>
<g>
</g>
<g>
</g>
<g>
</g>
<g>
</g>
<g>
</g>
<g>
</g>
<g>
</g>
<g>
</g>
<g>
</g>
<g>
</g>
<g>
</g>
</svg>
