<?xml version="1.0" encoding="iso-8859-1"?>
<!-- Generator: Adobe Illustrator 19.0.0, SVG Export Plug-In . SVG Version: 6.00 Build 0)  -->
<svg version="1.1" id="Layer_1" xmlns="http://www.w3.org/2000/svg" xmlns:xlink="http://www.w3.org/1999/xlink" x="0px" y="0px"
	 viewBox="0 0 512 512" style="enable-background:new 0 0 512 512;" xml:space="preserve">
<circle style="fill:#05BEA6;" cx="256" cy="256" r="256"/>
<path style="fill:#00A49A;" d="M504.763,316.606L269.534,81.375l-2.884,67.86l-64.638,8.152l60.692,60.44l-2.465,49.245
	l-37.976-0.212l-65.283-65.283l-15.882,37.731l-63.043,26.75L316.73,504.734C409.369,482.192,482.268,409.26,504.763,316.606z"/>
<path style="fill:#FFFFFF;" d="M430.625,242.467l-53.093-41.898c-5.185-4.093-12.252-4.861-18.199-1.979
	c-5.944,2.881-9.719,8.907-9.719,15.513v24.657h-76.374v-76.374h24.659c6.606,0,12.631-3.775,15.513-9.719
	c2.882-5.944,2.113-13.012-1.979-18.199l-41.898-53.093c-3.268-4.143-8.256-6.559-13.533-6.559s-10.264,2.417-13.533,6.559
	l-41.898,53.093c-4.093,5.186-4.861,12.254-1.979,18.199c2.882,5.946,8.907,9.719,15.513,9.719h24.655v76.374h-76.374v-24.659
	c0-6.606-3.775-12.631-9.719-15.513c-5.946-2.882-13.012-2.114-18.199,1.979l-53.093,41.9c-4.143,3.269-6.559,8.256-6.559,13.533
	s2.417,10.264,6.559,13.533l53.093,41.898c3.101,2.448,6.877,3.706,10.681,3.706c2.557,0,5.129-0.569,7.516-1.726
	c5.944-2.881,9.719-8.907,9.719-15.513v-24.659h76.376v76.376h-24.659c-6.606,0-12.631,3.775-15.513,9.719
	s-2.114,13.012,1.979,18.199l41.898,53.093c3.269,4.143,8.256,6.559,13.533,6.559s10.264-2.417,13.533-6.559l41.898-53.093
	c4.093-5.185,4.861-12.254,1.979-18.199c-2.882-5.946-8.907-9.719-15.513-9.719h-24.655v-76.376h76.374v24.659
	c0,6.606,3.775,12.631,9.719,15.513c2.389,1.158,4.96,1.726,7.516,1.726c3.806,0,7.58-1.258,10.681-3.706l53.093-41.898
	c4.143-3.268,6.559-8.256,6.559-13.533S434.767,245.736,430.625,242.467z"/>
<path style="fill:#E6F3FF;" d="M430.625,242.467l-53.093-41.898c-5.185-4.093-12.252-4.861-18.199-1.979
	c-5.944,2.881-9.719,8.907-9.719,15.513v24.657h-76.374v-76.374h24.659c6.606,0,12.631-3.775,15.513-9.719
	c2.882-5.944,2.113-13.012-1.979-18.199l-41.898-53.093c-3.21-4.067-8.076-6.456-13.246-6.544V437.17
	c5.17-0.086,10.035-2.476,13.245-6.544l41.898-53.093c4.093-5.185,4.861-12.254,1.979-18.199c-2.882-5.946-8.907-9.719-15.513-9.719
	h-24.657v-76.376h76.374v24.659c0,6.606,3.775,12.631,9.719,15.513c2.389,1.158,4.96,1.726,7.516,1.726
	c3.806,0,7.58-1.258,10.681-3.706l53.093-41.898c4.143-3.268,6.559-8.256,6.559-13.533S434.767,245.736,430.625,242.467z"/>
<g>
</g>
<g>
</g>
<g>
</g>
<g>
</g>
<g>
</g>
<g>
</g>
<g>
</g>
<g>
</g>
<g>
</g>
<g>
</g>
<g>
</g>
<g>
</g>
<g>
</g>
<g>
</g>
<g>
</g>
</svg>
