<?xml version="1.0" encoding="iso-8859-1"?>
<!-- Generator: Adobe Illustrator 19.0.0, SVG Export Plug-In . SVG Version: 6.00 Build 0)  -->
<svg version="1.1" id="Layer_1" xmlns="http://www.w3.org/2000/svg" xmlns:xlink="http://www.w3.org/1999/xlink" x="0px" y="0px"
	 viewBox="0 0 512 512" style="enable-background:new 0 0 512 512;" xml:space="preserve">
<circle style="fill:#FD8469;" cx="256" cy="256" r="256"/>
<path style="fill:#FC6F58;" d="M341.047,168.081l-85.04-85.566l-36.99,44.975l-27.024,62.914l72.494,72.356l-8.492,166.726
	l72.582,72.061c83.022-24.5,148.468-89.947,172.97-172.966L341.047,168.081z"/>
<polygon style="fill:#FFFFFF;" points="271.515,370.083 271.515,141.905 320.019,190.405 341.961,168.464 256.007,82.515 
	170.053,168.462 191.991,190.404 240.485,141.917 240.485,370.097 191.979,321.595 170.041,343.538 255.993,429.485 
	341.947,343.538 320.009,321.596 "/>
<polygon style="fill:#E6F3FF;" points="271.515,370.083 271.515,141.905 320.019,190.405 341.961,168.464 256.007,82.515 
	255.426,83.096 255.993,429.485 255.993,429.485 341.947,343.538 320.009,321.596 "/>
<g>
</g>
<g>
</g>
<g>
</g>
<g>
</g>
<g>
</g>
<g>
</g>
<g>
</g>
<g>
</g>
<g>
</g>
<g>
</g>
<g>
</g>
<g>
</g>
<g>
</g>
<g>
</g>
<g>
</g>
</svg>
