<?xml version="1.0" encoding="iso-8859-1"?>
<!-- Generator: Adobe Illustrator 19.0.0, SVG Export Plug-In . SVG Version: 6.00 Build 0)  -->
<svg version="1.1" id="Layer_1" xmlns="http://www.w3.org/2000/svg" xmlns:xlink="http://www.w3.org/1999/xlink" x="0px" y="0px"
	 viewBox="0 0 512 512" style="enable-background:new 0 0 512 512;" xml:space="preserve">
<circle style="fill:#FD8469;" cx="256" cy="256" r="256"/>
<path style="fill:#FC6F58;" d="M329.578,501.25c82.472-24.709,147.449-89.867,171.903-172.447L268.214,95.565l-29.617,34.233
	l-43.67,52.458l67.286,68.03L243.862,416.43L329.578,501.25z"/>
<path style="fill:#324A5E;" d="M305.057,324.851h-31.818V187.147h31.818c6.606,0,12.631-3.775,15.513-9.721
	c2.882-5.946,2.114-13.012-1.979-18.199l-49.059-62.162c-3.268-4.141-8.256-6.559-13.533-6.559c-5.279,0-10.264,2.417-13.533,6.561
	l-49.057,62.167c-4.093,5.186-4.861,12.254-1.979,18.199c2.882,5.946,8.907,9.719,15.513,9.719h31.818v137.702h-31.818
	c-6.606,0-12.631,3.774-15.513,9.719s-2.114,13.014,1.979,18.199l49.055,62.166c3.269,4.143,8.256,6.561,13.533,6.561
	s10.264-2.417,13.533-6.559l49.057-62.166c4.093-5.187,4.861-12.254,1.979-18.201C317.688,328.626,311.663,324.851,305.057,324.851z
	"/>
<path style="fill:#2B3B4E;" d="M305.057,324.851h-31.818V187.147h31.818c6.606,0,12.631-3.775,15.513-9.721
	c2.882-5.946,2.114-13.012-1.979-18.199l-49.059-62.162c-3.268-4.141-8.256-6.559-13.533-6.559c-0.193,0-0.383,0.026-0.574,0.033
	v330.924c0.191,0.007,0.381,0.033,0.574,0.033c5.277,0,10.264-2.417,13.533-6.559l49.057-62.166
	c4.093-5.187,4.861-12.254,1.979-18.201C317.688,328.626,311.663,324.851,305.057,324.851z"/>
<g>
</g>
<g>
</g>
<g>
</g>
<g>
</g>
<g>
</g>
<g>
</g>
<g>
</g>
<g>
</g>
<g>
</g>
<g>
</g>
<g>
</g>
<g>
</g>
<g>
</g>
<g>
</g>
<g>
</g>
</svg>
