<?xml version="1.0" encoding="iso-8859-1"?>
<!-- Generator: Adobe Illustrator 19.0.0, SVG Export Plug-In . SVG Version: 6.00 Build 0)  -->
<svg version="1.1" id="Layer_1" xmlns="http://www.w3.org/2000/svg" xmlns:xlink="http://www.w3.org/1999/xlink" x="0px" y="0px"
	 viewBox="0 0 512 512" style="enable-background:new 0 0 512 512;" xml:space="preserve">
<circle style="fill:#E6F3FF;" cx="256" cy="256" r="256"/>
<path style="fill:#CFDBE6;" d="M501.381,329.133l-84.985-85.363l-175.587,9.68l-58.649-58.649l-38.357,37.495l-44.391,38.788
	L329.578,501.25C411.938,476.574,476.851,411.557,501.381,329.133z"/>
<path style="fill:#324A5E;" d="M414.935,242.467L352.77,193.41c-5.185-4.091-12.252-4.856-18.199-1.979
	c-5.944,2.882-9.719,8.907-9.719,15.513v31.816H187.149v-31.818c0-6.606-3.775-12.631-9.719-15.512
	c-5.944-2.886-13.012-2.114-18.199,1.977l-62.166,49.055c-4.143,3.269-6.559,8.256-6.559,13.534s2.417,10.264,6.559,13.534
	l62.166,49.057c3.101,2.448,6.877,3.705,10.681,3.705c2.557,0,5.129-0.569,7.516-1.726c5.944-2.882,9.719-8.907,9.719-15.513
	v-31.816h137.702v31.818c0,6.606,3.775,12.631,9.719,15.513c2.389,1.157,4.96,1.726,7.516,1.726c3.806,0,7.58-1.258,10.681-3.705
	l62.166-49.057c4.143-3.268,6.559-8.256,6.559-13.534S419.078,245.736,414.935,242.467z"/>
<path style="fill:#2B3B4E;" d="M90.538,255.426c-0.007,0.191-0.033,0.381-0.033,0.572c0,5.279,2.417,10.264,6.559,13.534
	l62.166,49.057c3.101,2.448,6.877,3.705,10.681,3.705c2.557,0,5.129-0.569,7.516-1.726c5.944-2.882,9.719-8.907,9.719-15.513
	v-31.816h137.702v31.818c0,6.606,3.775,12.631,9.719,15.513c2.389,1.157,4.96,1.726,7.516,1.726c3.806,0,7.58-1.258,10.681-3.705
	l62.166-49.057c4.143-3.268,6.559-8.256,6.559-13.534c0-0.193-0.026-0.383-0.033-0.574H90.538z"/>
<g>
</g>
<g>
</g>
<g>
</g>
<g>
</g>
<g>
</g>
<g>
</g>
<g>
</g>
<g>
</g>
<g>
</g>
<g>
</g>
<g>
</g>
<g>
</g>
<g>
</g>
<g>
</g>
<g>
</g>
</svg>
