<?xml version="1.0" encoding="iso-8859-1"?>
<!-- Generator: Adobe Illustrator 19.0.0, SVG Export Plug-In . SVG Version: 6.00 Build 0)  -->
<svg version="1.1" id="Layer_1" xmlns="http://www.w3.org/2000/svg" xmlns:xlink="http://www.w3.org/1999/xlink" x="0px" y="0px"
	 viewBox="0 0 512 512" style="enable-background:new 0 0 512 512;" xml:space="preserve">
<circle style="fill:#324A5E;" cx="256" cy="256" r="256"/>
<path style="fill:#2B3B4E;" d="M510.941,279.218l-148.78-149.164l-4.049,156.696l-101.667,28.879l-61.523-61.752l-39.812,31.861
	l-39.605,35.993l186.623,186.115C414.058,487.477,500.589,394.33,510.941,279.218z"/>
<path style="fill:#FFD15D;" d="M349.955,124.983c-9.521,0-17.239,7.72-17.239,17.239v149.98H199.892v-26.228
	c0-6.606-3.775-12.631-9.719-15.513c-5.946-2.882-13.014-2.11-18.199,1.979l-55.082,43.467c-4.143,3.269-6.559,8.256-6.559,13.534
	s2.417,10.264,6.559,13.534l55.082,43.467c3.101,2.446,6.877,3.705,10.681,3.705c2.557,0,5.129-0.569,7.516-1.726
	c5.944-2.882,9.719-8.907,9.719-15.513V326.68h150.063c9.521,0,17.239-7.72,17.239-17.239V142.222
	C367.194,132.703,359.474,124.983,349.955,124.983z"/>
<path style="fill:#F9B54C;" d="M349.955,124.983c-9.521,0-17.239,7.72-17.239,17.239v149.98h-76.138v34.478h93.377
	c9.521,0,17.239-7.72,17.239-17.239V142.222C367.194,132.703,359.474,124.983,349.955,124.983z"/>
<g>
</g>
<g>
</g>
<g>
</g>
<g>
</g>
<g>
</g>
<g>
</g>
<g>
</g>
<g>
</g>
<g>
</g>
<g>
</g>
<g>
</g>
<g>
</g>
<g>
</g>
<g>
</g>
<g>
</g>
</svg>
