<?xml version="1.0" encoding="iso-8859-1"?>
<!-- Generator: Adobe Illustrator 19.0.0, SVG Export Plug-In . SVG Version: 6.00 Build 0)  -->
<svg version="1.1" id="Layer_1" xmlns="http://www.w3.org/2000/svg" xmlns:xlink="http://www.w3.org/1999/xlink" x="0px" y="0px"
	 viewBox="0 0 512 512" style="enable-background:new 0 0 512 512;" xml:space="preserve">
<circle style="fill:#FC6F58;" cx="256" cy="256" r="256"/>
<path style="fill:#F1543F;" d="M479.789,380.375L228.19,128.209l-81.646,18.046l-15.022,75.052l254.695,255.126
	C425.284,453.304,457.668,420.093,479.789,380.375z"/>
<path style="fill:#FFFFFF;" d="M387.265,357.71L185.442,155.891h29.062c9.521,0,17.239-7.72,17.239-17.239
	s-7.718-17.239-17.239-17.239h-70.68c-9.521,0-17.239,7.72-17.239,17.239v70.678c0,9.519,7.718,17.239,17.239,17.239
	s17.239-7.72,17.239-17.239v-29.06l201.825,201.821c3.367,3.365,7.778,5.049,12.19,5.049c4.411,0,8.825-1.684,12.19-5.049
	C393.999,375.358,393.997,364.442,387.265,357.71z"/>
<path style="fill:#E6F3FF;" d="M126.585,138.652v70.678c0,9.519,7.718,17.239,17.239,17.239s17.239-7.72,17.239-17.239v-29.06
	l201.825,201.821c3.367,3.365,7.778,5.049,12.19,5.049c4.156,0,8.304-1.515,11.586-4.503L131.088,127.062
	C128.298,130.126,126.585,134.184,126.585,138.652z"/>
<g>
</g>
<g>
</g>
<g>
</g>
<g>
</g>
<g>
</g>
<g>
</g>
<g>
</g>
<g>
</g>
<g>
</g>
<g>
</g>
<g>
</g>
<g>
</g>
<g>
</g>
<g>
</g>
<g>
</g>
</svg>
