<?xml version="1.0" encoding="iso-8859-1"?>
<!-- Generator: Adobe Illustrator 19.0.0, SVG Export Plug-In . SVG Version: 6.00 Build 0)  -->
<svg version="1.1" id="Layer_1" xmlns="http://www.w3.org/2000/svg" xmlns:xlink="http://www.w3.org/1999/xlink" x="0px" y="0px"
	 viewBox="0 0 512 512" style="enable-background:new 0 0 512 512;" xml:space="preserve">
<circle style="fill:#324A5E;" cx="256" cy="256" r="256"/>
<path style="fill:#2B3B4E;" d="M511.94,260.822l-117.836-118.6L278.916,227.34l-74.209,77.54l-45.244-45.387l-34.478,126.95
	l124.323,125.471c2.224,0.057,4.456,0.086,6.694,0.086C395.773,512,509.366,399.981,511.94,260.822z"/>
<polygon style="fill:#FD8469;" points="394.104,142.222 369.723,117.898 159.463,328.159 159.463,259.493 124.985,259.493 
	124.985,386.443 252.509,387.017 252.509,352.539 183.844,352.539 "/>
<polygon style="fill:#FC6F58;" points="381.626,129.8 124.985,386.443 124.985,386.443 252.509,387.017 252.509,352.539 
	183.844,352.539 394.104,142.222 "/>
<g>
</g>
<g>
</g>
<g>
</g>
<g>
</g>
<g>
</g>
<g>
</g>
<g>
</g>
<g>
</g>
<g>
</g>
<g>
</g>
<g>
</g>
<g>
</g>
<g>
</g>
<g>
</g>
<g>
</g>
</svg>
