<?xml version="1.0" encoding="iso-8859-1"?>
<!-- Generator: Adobe Illustrator 19.0.0, SVG Export Plug-In . SVG Version: 6.00 Build 0)  -->
<svg version="1.1" id="Layer_1" xmlns="http://www.w3.org/2000/svg" xmlns:xlink="http://www.w3.org/1999/xlink" x="0px" y="0px"
	 viewBox="0 0 512 512" style="enable-background:new 0 0 512 512;" xml:space="preserve">
<circle style="fill:#E6F3FF;" cx="256" cy="256" r="256"/>
<path style="fill:#CFDBE6;" d="M512,256c0-0.546-0.017-1.09-0.021-1.636L385.126,127.51L237.613,266.426L125.568,377.323
	l134.623,134.623C399.641,509.705,512,395.983,512,256z"/>
<path style="fill:#FD8469;" d="M358.284,391.121H153.714c-19.677,0-35.626-15.951-35.626-35.628V150.924
	c0-19.677,15.951-35.628,35.626-35.628h204.571c19.677,0,35.628,15.951,35.628,35.628v204.571
	C393.912,375.172,377.961,391.121,358.284,391.121z"/>
<path style="fill:#FC6F58;" d="M118.088,253.64v101.854c0,19.677,15.951,35.628,35.628,35.628h204.571
	c19.677,0,35.628-15.951,35.628-35.628V253.64L118.088,253.64L118.088,253.64z"/>
<polygon style="fill:#324A5E;" points="288.204,359.676 181.738,253.209 288.208,146.744 316.244,174.78 237.811,253.209 
	316.242,331.64 "/>
<polygon style="fill:#2B3B4E;" points="182.169,253.64 288.204,359.676 316.242,331.64 238.242,253.64 "/>
<g>
</g>
<g>
</g>
<g>
</g>
<g>
</g>
<g>
</g>
<g>
</g>
<g>
</g>
<g>
</g>
<g>
</g>
<g>
</g>
<g>
</g>
<g>
</g>
<g>
</g>
<g>
</g>
<g>
</g>
</svg>
