<?xml version="1.0" encoding="iso-8859-1"?>
<!-- Generator: Adobe Illustrator 19.0.0, SVG Export Plug-In . SVG Version: 6.00 Build 0)  -->
<svg version="1.1" id="Layer_1" xmlns="http://www.w3.org/2000/svg" xmlns:xlink="http://www.w3.org/1999/xlink" x="0px" y="0px"
	 viewBox="0 0 512 512" style="enable-background:new 0 0 512 512;" xml:space="preserve">
<circle style="fill:#31BAFD;" cx="256" cy="256" r="256"/>
<path style="fill:#2B9ED8;" d="M502.386,325.722L317.83,141.165l-63.553-19.944l-38.157,41.884l38.157,38.157l-13.791,43.244
	l-37.486,11.497l-39.893-39.893l-54.643,38.021l32.701,63.69l184.563,184.563C411.057,478.284,478.287,411.053,502.386,325.722z"/>
<polygon style="fill:#FFFFFF;" points="370.836,194.179 348.894,216.119 373.26,240.485 271.515,240.485 271.515,138.733 
	295.889,163.106 317.83,141.165 256.003,79.338 194.179,141.164 216.119,163.106 240.485,138.74 240.485,240.485 138.731,240.485 
	163.106,216.111 141.164,194.17 79.338,255.997 141.164,317.821 163.106,295.881 138.74,271.515 240.485,271.515 240.485,373.269 
	216.111,348.894 194.17,370.836 255.997,432.662 317.821,370.836 295.881,348.894 271.515,373.26 271.515,271.515 373.267,271.515 
	348.894,295.889 370.835,317.83 432.662,256.003 "/>
<polygon style="fill:#E6F3FF;" points="370.836,194.179 348.894,216.119 373.26,240.485 271.515,240.485 271.515,138.733 
	295.889,163.106 317.83,141.165 256.288,79.622 256.288,432.371 317.821,370.836 295.881,348.894 271.515,373.26 271.515,271.515 
	373.267,271.515 348.894,295.889 370.835,317.83 432.662,256.003 "/>
<g>
</g>
<g>
</g>
<g>
</g>
<g>
</g>
<g>
</g>
<g>
</g>
<g>
</g>
<g>
</g>
<g>
</g>
<g>
</g>
<g>
</g>
<g>
</g>
<g>
</g>
<g>
</g>
<g>
</g>
</svg>
