<?xml version="1.0" encoding="iso-8859-1"?>
<!-- Generator: Adobe Illustrator 19.0.0, SVG Export Plug-In . SVG Version: 6.00 Build 0)  -->
<svg version="1.1" id="Layer_1" xmlns="http://www.w3.org/2000/svg" xmlns:xlink="http://www.w3.org/1999/xlink" x="0px" y="0px"
	 viewBox="0 0 512 512" style="enable-background:new 0 0 512 512;" xml:space="preserve">
<circle style="fill:#FFD15D;" cx="256" cy="256" r="256"/>
<path style="fill:#F9B54C;" d="M303.092,507.661c103.784-19.299,185.558-101.2,204.662-205.053L327.02,121.292l-68.905-13.364
	l-65.296,39.951l68.76,68.873l-17.646,232.324L303.092,507.661z"/>
<g>
	<path style="fill:#324A5E;" d="M329.388,123.63l-56.027-56.027c-6.732-6.732-17.648-6.732-24.381,0l-56.027,56.027
		c-4.93,4.93-6.404,12.345-3.736,18.787c2.669,6.441,8.954,10.642,15.927,10.642h38.788v296.019h34.478V153.059h38.788
		c6.971,0,13.259-4.201,15.927-10.642C335.794,135.975,334.319,128.56,329.388,123.63z"/>
</g>
<path style="fill:#2B3B4E;" d="M329.388,123.63l-56.027-56.027c-3.22-3.22-7.397-4.882-11.616-5.022v386.496h16.663V153.059h38.79
	c6.971,0,13.259-4.201,15.927-10.642C335.794,135.975,334.319,128.56,329.388,123.63z"/>
<g>
</g>
<g>
</g>
<g>
</g>
<g>
</g>
<g>
</g>
<g>
</g>
<g>
</g>
<g>
</g>
<g>
</g>
<g>
</g>
<g>
</g>
<g>
</g>
<g>
</g>
<g>
</g>
<g>
</g>
</svg>
