<?xml version="1.0" encoding="iso-8859-1"?>
<!-- Generator: Adobe Illustrator 19.0.0, SVG Export Plug-In . SVG Version: 6.00 Build 0)  -->
<svg version="1.1" id="Layer_1" xmlns="http://www.w3.org/2000/svg" xmlns:xlink="http://www.w3.org/1999/xlink" x="0px" y="0px"
	 viewBox="0 0 512 512" style="enable-background:new 0 0 512 512;" xml:space="preserve">
<circle style="fill:#FFD300;" cx="256" cy="256" r="256"/>
<path style="fill:#F4A200;" d="M503.189,322.753l-93.043-93.043l-35.094,45.499L229.998,130.155l-44.606,170.882l10.343,74.99
	l126.793,127.223C410.362,479.675,479.535,410.555,503.189,322.753z"/>
<g>
	<path style="fill:#324A5E;" d="M422.367,241.95L310.313,129.936c-5.67-5.668-14.196-7.365-21.604-4.294
		c-7.406,3.069-12.236,10.297-12.236,18.315l-0.007,224.108c0,8.018,4.83,15.248,12.24,18.316c2.453,1.015,5.029,1.508,7.582,1.508
		c5.16,0,10.233-2.015,14.024-5.808l112.059-112.094c3.718-3.718,5.806-8.763,5.804-14.021S426.086,245.667,422.367,241.95z"/>
	<path style="fill:#324A5E;" d="M223.296,125.619c-7.409-3.065-15.938-1.37-21.606,4.299L89.631,242.012
		c-3.718,3.718-5.806,8.763-5.804,14.021c0.002,5.258,2.089,10.3,5.81,14.017L201.69,382.064c3.793,3.791,8.863,5.804,14.021,5.804
		c2.553,0,5.13-0.493,7.583-1.51c7.406-3.069,12.236-10.297,12.236-18.315l0.007-224.108
		C235.536,135.918,230.705,128.688,223.296,125.619z"/>
</g>
<g>
	<path style="fill:#2B3B4E;" d="M276.47,255.426l-0.003,112.638c0,8.018,4.83,15.248,12.24,18.316
		c2.453,1.015,5.029,1.508,7.582,1.508c5.16,0,10.233-2.015,14.024-5.808l112.059-112.094c3.718-3.718,5.806-8.763,5.804-14.021
		c0-0.181-0.022-0.36-0.028-0.541L276.47,255.426L276.47,255.426z"/>
	<path style="fill:#2B3B4E;" d="M83.856,255.426c-0.007,0.203-0.029,0.405-0.029,0.609c0,5.258,2.089,10.3,5.81,14.017
		L201.69,382.066c3.793,3.791,8.863,5.804,14.021,5.804c2.553,0,5.13-0.493,7.583-1.51c7.406-3.069,12.236-10.297,12.236-18.315
		l0.003-112.619L83.856,255.426L83.856,255.426z"/>
</g>
<g>
</g>
<g>
</g>
<g>
</g>
<g>
</g>
<g>
</g>
<g>
</g>
<g>
</g>
<g>
</g>
<g>
</g>
<g>
</g>
<g>
</g>
<g>
</g>
<g>
</g>
<g>
</g>
<g>
</g>
</svg>
