<?xml version="1.0" encoding="iso-8859-1"?>
<!-- Generator: Adobe Illustrator 19.0.0, SVG Export Plug-In . SVG Version: 6.00 Build 0)  -->
<svg version="1.1" id="Layer_1" xmlns="http://www.w3.org/2000/svg" xmlns:xlink="http://www.w3.org/1999/xlink" x="0px" y="0px"
	 viewBox="0 0 512 512" style="enable-background:new 0 0 512 512;" xml:space="preserve">
<circle style="fill:#FFD15D;" cx="256" cy="256" r="256"/>
<path style="fill:#F9B54C;" d="M477.929,383.686L355.837,261.504l-40.934,53.839l-59.933,45.059l121.977,121.268
	C419.049,459.061,454.097,425.019,477.929,383.686z"/>
<g>
	<path style="fill:#324A5E;" d="M369.786,356.164l-10.097-85.673c-0.772-6.561-5.227-12.102-11.467-14.267
		c-6.242-2.167-13.172-0.578-17.842,4.096l-25.598,25.598L171.525,152.66l-24.381,24.381L280.4,310.298l-25.598,25.597
		c-4.672,4.672-6.263,11.6-4.096,17.842c2.167,6.242,7.708,10.695,14.269,11.469l85.675,10.097c0.674,0.079,1.348,0.117,2.019,0.117
		c4.544,0,8.938-1.798,12.19-5.049C368.588,366.64,370.404,361.406,369.786,356.164z"/>
</g>
<path style="fill:#2B3B4E;" d="M147.144,177.04L280.4,310.296l-25.598,25.597c-4.672,4.672-6.263,11.6-4.096,17.842
	c2.167,6.242,7.708,10.695,14.269,11.469l85.675,10.097c0.674,0.079,1.348,0.117,2.019,0.117c4.544,0,8.938-1.798,12.19-5.049
	c0.059-0.059,0.105-0.124,0.162-0.183L159.508,164.678L147.144,177.04z"/>
<g>
</g>
<g>
</g>
<g>
</g>
<g>
</g>
<g>
</g>
<g>
</g>
<g>
</g>
<g>
</g>
<g>
</g>
<g>
</g>
<g>
</g>
<g>
</g>
<g>
</g>
<g>
</g>
<g>
</g>
</svg>
