<?xml version="1.0" encoding="iso-8859-1"?>
<!-- Generator: Adobe Illustrator 19.0.0, SVG Export Plug-In . SVG Version: 6.00 Build 0)  -->
<svg version="1.1" id="Layer_1" xmlns="http://www.w3.org/2000/svg" xmlns:xlink="http://www.w3.org/1999/xlink" x="0px" y="0px"
	 viewBox="0 0 512 512" style="enable-background:new 0 0 512 512;" xml:space="preserve">
<circle style="fill:#324A5E;" cx="256" cy="256" r="256"/>
<path style="fill:#2B3B4E;" d="M402.811,300.923l-41.079,41.126l-62.447,62.552l77.284,77.269
	c43.948-23.507,80.232-59.458,104.146-103.153L402.811,300.923z"/>
<g>
	<path style="fill:#B5F1F4;" d="M397.243,297.207c-6.439-2.662-13.855-1.193-18.787,3.737l-27.427,27.427L141.712,119.055
		l-24.379,24.379l209.317,209.317l-27.427,27.427c-4.93,4.93-6.404,12.345-3.736,18.787c2.669,6.44,8.954,10.642,15.927,10.642
		h79.234c9.521,0,17.239-7.72,17.239-17.239v-79.234C407.885,306.162,403.685,299.875,397.243,297.207z"/>
</g>
<path style="fill:#84DBFF;" d="M117.332,143.434l209.317,209.317l-27.427,27.427c-4.93,4.93-6.404,12.345-3.736,18.787
	c2.669,6.44,8.954,10.642,15.927,10.642h79.234c5.053,0,9.585-2.188,12.738-5.651L130.096,130.67L117.332,143.434z"/>
<g>
</g>
<g>
</g>
<g>
</g>
<g>
</g>
<g>
</g>
<g>
</g>
<g>
</g>
<g>
</g>
<g>
</g>
<g>
</g>
<g>
</g>
<g>
</g>
<g>
</g>
<g>
</g>
<g>
</g>
</svg>
