<?xml version="1.0" encoding="iso-8859-1"?>
<!-- Generator: Adobe Illustrator 19.0.0, SVG Export Plug-In . SVG Version: 6.00 Build 0)  -->
<svg version="1.1" id="Layer_1" xmlns="http://www.w3.org/2000/svg" xmlns:xlink="http://www.w3.org/1999/xlink" x="0px" y="0px"
	 viewBox="0 0 512 512" style="enable-background:new 0 0 512 512;" xml:space="preserve">
<circle style="fill:#FFD15D;" cx="256" cy="256" r="256"/>
<path style="fill:#F9B54C;" d="M501.184,329.799L362.139,190.357l-113.726,9.499l-53.917-53.27l-30.868,32.701l-48.135,35.528
	l264.975,264.921C438,447.662,481.87,394.05,501.184,329.799z"/>
<path style="fill:#324A5E;" d="M349.953,185.32H199.89v-26.227c0-6.606-3.775-12.631-9.719-15.513
	c-5.946-2.884-13.014-2.112-18.199,1.979l-55.082,43.467c-4.143,3.27-6.559,8.256-6.559,13.534s2.417,10.264,6.559,13.534
	l55.082,43.467c3.101,2.446,6.877,3.705,10.681,3.705c2.557,0,5.129-0.569,7.516-1.726c5.944-2.882,9.719-8.907,9.719-15.513
	v-26.228h132.825v149.98c0,9.519,7.718,17.239,17.239,17.239s17.239-7.72,17.239-17.239V202.559
	C367.192,193.04,359.474,185.32,349.953,185.32z"/>
<path style="fill:#2B3B4E;" d="M349.953,185.32h-92.229v34.478h74.99v149.98c0,9.519,7.718,17.239,17.239,17.239
	s17.239-7.72,17.239-17.239V202.559C367.192,193.04,359.474,185.32,349.953,185.32z"/>
<g>
</g>
<g>
</g>
<g>
</g>
<g>
</g>
<g>
</g>
<g>
</g>
<g>
</g>
<g>
</g>
<g>
</g>
<g>
</g>
<g>
</g>
<g>
</g>
<g>
</g>
<g>
</g>
<g>
</g>
</svg>
