<?xml version="1.0" encoding="iso-8859-1"?>
<!-- Generator: Adobe Illustrator 19.0.0, SVG Export Plug-In . SVG Version: 6.00 Build 0)  -->
<svg version="1.1" id="Layer_1" xmlns="http://www.w3.org/2000/svg" xmlns:xlink="http://www.w3.org/1999/xlink" x="0px" y="0px"
	 viewBox="0 0 512 512" style="enable-background:new 0 0 512 512;" xml:space="preserve">
<circle style="fill:#F4E3C3;" cx="256" cy="256" r="256"/>
<path style="fill:#FED8B2;" d="M337.806,498.647c73.888-24.902,132.677-82.606,159.072-155.793L396.491,242.467l-88.485,13.821
	l-195.61,16.951L337.806,498.647z"/>
<g>
	<path style="fill:#324A5E;" d="M396.49,242.467l-67.722-53.441c-5.185-4.094-12.252-4.861-18.199-1.979
		c-5.944,2.881-9.719,8.907-9.719,15.513v36.202H112.397v34.478h188.452v36.202c0,6.606,3.774,12.631,9.719,15.513
		c2.391,1.158,4.96,1.726,7.518,1.726c3.805,0,7.578-1.258,10.68-3.706l67.722-53.441c4.143-3.268,6.561-8.256,6.561-13.533
		S400.632,245.736,396.49,242.467z"/>
</g>
<path style="fill:#2B3B4E;" d="M112.397,273.239h188.452v36.202c0,6.606,3.774,12.631,9.719,15.513
	c2.391,1.158,4.96,1.726,7.518,1.726c3.805,0,7.578-1.258,10.68-3.706l67.722-53.441c4.143-3.268,6.561-8.256,6.561-13.533H112.397
	V273.239z"/>
<g>
</g>
<g>
</g>
<g>
</g>
<g>
</g>
<g>
</g>
<g>
</g>
<g>
</g>
<g>
</g>
<g>
</g>
<g>
</g>
<g>
</g>
<g>
</g>
<g>
</g>
<g>
</g>
<g>
</g>
</svg>
