<?xml version="1.0" encoding="iso-8859-1"?>
<!-- Generator: Adobe Illustrator 19.0.0, SVG Export Plug-In . SVG Version: 6.00 Build 0)  -->
<svg version="1.1" id="Layer_1" xmlns="http://www.w3.org/2000/svg" xmlns:xlink="http://www.w3.org/1999/xlink" x="0px" y="0px"
	 viewBox="0 0 512 512" style="enable-background:new 0 0 512 512;" xml:space="preserve">
<circle style="fill:#E6F3FF;" cx="256" cy="256" r="256"/>
<path style="fill:#CFDBE6;" d="M499.309,335.767L257.472,93.93l-65.831,81.046l44.22,69.57l94.392,94.392l-66.117,73.344
	l82.999,82.999C418.952,467.913,475.264,409.155,499.309,335.767z"/>
<path style="fill:#31BAFD;" d="M364.723,252.338c-7.928-34.795-28.931-64.421-59.139-83.418
	c-17.199-10.816-36.211-17.436-55.815-19.682l31.472-23.574l-23.769-31.735l-86.114,64.503l64.503,86.114l31.734-23.771
	l-24.197-32.304c14.431,1.365,28.45,6.073,41.077,14.014c21.244,13.36,36.014,34.194,41.587,58.663
	c5.575,24.469,1.288,49.643-12.073,70.887s-34.194,36.014-58.661,41.587l8.807,38.66c34.795-7.928,64.421-28.931,83.418-59.139
	C366.552,322.934,372.65,287.135,364.723,252.338z"/>
<path style="fill:#2B9ED8;" d="M364.227,250.382l-37.441,14.331c4.396,23.338-0.081,47.109-12.793,67.324
	c-13.36,21.244-34.194,36.014-58.661,41.587l8.807,38.66c34.795-7.928,64.421-28.931,83.418-59.139
	c18.999-30.21,25.095-66.008,17.168-100.804C364.573,251.68,364.385,251.037,364.227,250.382z"/>
<g>
</g>
<g>
</g>
<g>
</g>
<g>
</g>
<g>
</g>
<g>
</g>
<g>
</g>
<g>
</g>
<g>
</g>
<g>
</g>
<g>
</g>
<g>
</g>
<g>
</g>
<g>
</g>
<g>
</g>
</svg>
