<?xml version="1.0" encoding="iso-8859-1"?>
<!-- Generator: Adobe Illustrator 19.0.0, SVG Export Plug-In . SVG Version: 6.00 Build 0)  -->
<svg version="1.1" id="Layer_1" xmlns="http://www.w3.org/2000/svg" xmlns:xlink="http://www.w3.org/1999/xlink" x="0px" y="0px"
	 viewBox="0 0 512 512" style="enable-background:new 0 0 512 512;" xml:space="preserve">
<circle style="fill:#E6F3FF;" cx="256" cy="256" r="256"/>
<path style="fill:#CFDBE6;" d="M362.267,488.96c70.016-31.991,123.092-94.615,142.102-170.736L397.605,211.461l-104.741,99.671
	l-58.263,50.162L362.267,488.96z"/>
<path style="fill:#FC6F58;" d="M402.742,218.679c-3.069-7.406-10.297-12.236-18.315-12.236l-256.862-0.007l0,0
	c-8.018,0-15.248,4.83-18.316,12.24c-3.069,7.409-1.37,15.938,4.301,21.606l128.478,128.438c3.718,3.718,8.761,5.806,14.019,5.804
	c5.258,0,10.3-2.091,14.017-5.81l128.384-128.431C404.116,234.611,405.811,226.085,402.742,218.679z"/>
<path style="fill:#F1543F;" d="M402.742,218.679c-3.069-7.406-10.297-12.236-18.315-12.236l-129.002-0.003v168.053
	c0.207,0.007,0.412,0.031,0.619,0.031c5.258,0,10.3-2.091,14.017-5.81l128.384-128.431
	C404.116,234.611,405.811,226.085,402.742,218.679z"/>
<g>
</g>
<g>
</g>
<g>
</g>
<g>
</g>
<g>
</g>
<g>
</g>
<g>
</g>
<g>
</g>
<g>
</g>
<g>
</g>
<g>
</g>
<g>
</g>
<g>
</g>
<g>
</g>
<g>
</g>
</svg>
