<?xml version="1.0" encoding="iso-8859-1"?>
<!-- Generator: Adobe Illustrator 19.0.0, SVG Export Plug-In . SVG Version: 6.00 Build 0)  -->
<svg version="1.1" id="Layer_1" xmlns="http://www.w3.org/2000/svg" xmlns:xlink="http://www.w3.org/1999/xlink" x="0px" y="0px"
	 viewBox="0 0 512 512" style="enable-background:new 0 0 512 512;" xml:space="preserve">
<circle style="fill:#B5F1F4;" cx="256" cy="256" r="256"/>
<g>
	<path style="fill:#84DBFF;" d="M248.077,288.304l-41.782,12.229L107.83,410.495l96.227,96.228C220.831,510.18,238.202,512,256,512
		c60.444,0,115.984-20.961,159.78-55.992L248.077,288.304z"/>
	<path style="fill:#84DBFF;" d="M512,256c0-18.189-1.91-35.93-5.517-53.046l-98.718-98.718L304.878,216.319l-16.574,31.758
		L456.008,415.78C491.039,371.986,512,316.445,512,256z"/>
</g>
<g>
	<path style="fill:#324A5E;" d="M407.764,104.236c-3.731-3.731-8.956-5.551-14.208-4.93l-67.169,7.916
		c-6.561,0.772-12.104,5.227-14.269,11.467c-2.165,6.242-0.574,13.171,4.096,17.842l17.436,17.436l-69.727,69.727l24.379,24.381
		l69.729-69.729l17.437,17.437c3.288,3.287,7.696,5.049,12.193,5.049c1.893,0,3.801-0.312,5.649-0.953
		c6.241-2.165,10.695-7.708,11.467-14.269l7.916-67.169C413.312,113.204,411.496,107.968,407.764,104.236z"/>
	<path style="fill:#324A5E;" d="M223.697,263.923l-69.729,69.729l-17.437-17.437c-4.672-4.672-11.6-6.263-17.842-4.096
		c-6.241,2.165-10.695,7.708-11.467,14.269l-7.916,67.169c-0.617,5.241,1.198,10.476,4.93,14.208
		c3.251,3.251,7.646,5.049,12.19,5.049c0.671,0,1.345-0.038,2.019-0.119l67.169-7.916c6.561-0.772,12.104-5.227,14.269-11.467
		c2.165-6.242,0.574-13.171-4.096-17.842l-17.436-17.436l69.729-69.727L223.697,263.923z"/>
</g>
<g>
	<path style="fill:#2B3B4E;" d="M407.764,104.236c-0.386-0.386-0.798-0.74-1.214-1.084L274.965,234.737l13.338,13.34l69.729-69.729
		l17.437,17.437c3.288,3.287,7.696,5.049,12.193,5.049c1.893,0,3.801-0.312,5.649-0.953c6.241-2.165,10.695-7.708,11.467-14.269
		l7.916-67.169C413.312,113.204,411.496,107.968,407.764,104.236z"/>
	<path style="fill:#2B3B4E;" d="M234.737,274.965L103.152,406.55c0.345,0.417,0.696,0.827,1.083,1.214
		c3.251,3.251,7.646,5.049,12.19,5.049c0.671,0,1.345-0.038,2.019-0.119l67.169-7.916c6.561-0.772,12.104-5.227,14.269-11.467
		c2.165-6.242,0.574-13.171-4.096-17.842l-17.436-17.436l69.729-69.727L234.737,274.965z"/>
</g>
<g>
</g>
<g>
</g>
<g>
</g>
<g>
</g>
<g>
</g>
<g>
</g>
<g>
</g>
<g>
</g>
<g>
</g>
<g>
</g>
<g>
</g>
<g>
</g>
<g>
</g>
<g>
</g>
<g>
</g>
</svg>
