<?xml version="1.0" encoding="iso-8859-1"?>
<!-- Generator: Adobe Illustrator 19.0.0, SVG Export Plug-In . SVG Version: 6.00 Build 0)  -->
<svg version="1.1" id="Layer_1" xmlns="http://www.w3.org/2000/svg" xmlns:xlink="http://www.w3.org/1999/xlink" x="0px" y="0px"
	 viewBox="0 0 512 512" style="enable-background:new 0 0 512 512;" xml:space="preserve">
<circle style="fill:#324A5E;" cx="256" cy="256" r="256"/>
<path style="fill:#2B3B4E;" d="M511.462,272.412L374.606,134.692l-54.048,44.504l-44.199-44.475L126.993,256.286l121.572,149.059
	l91.755,92.424C435.347,464.631,504.837,377.065,511.462,272.412z"/>
<g>
	<polygon style="fill:#FFFFFF;" points="248.567,405.345 99.245,256.003 248.568,106.658 276.359,134.722 155.314,256.003 
		276.606,377.311 	"/>
	<polygon style="fill:#FFFFFF;" points="346.567,405.345 197.244,256.002 346.569,106.658 374.606,134.692 253.314,256.002 
		374.605,377.311 	"/>
</g>
<g>
	<polygon style="fill:#E6F3FF;" points="99.816,256.574 248.567,405.345 276.606,377.311 155.884,256.574 	"/>
	<polygon style="fill:#E6F3FF;" points="197.818,256.574 346.567,405.345 374.605,377.311 253.886,256.574 	"/>
</g>
<g>
</g>
<g>
</g>
<g>
</g>
<g>
</g>
<g>
</g>
<g>
</g>
<g>
</g>
<g>
</g>
<g>
</g>
<g>
</g>
<g>
</g>
<g>
</g>
<g>
</g>
<g>
</g>
<g>
</g>
</svg>
