<?xml version="1.0" encoding="iso-8859-1"?>
<!-- Generator: Adobe Illustrator 19.0.0, SVG Export Plug-In . SVG Version: 6.00 Build 0)  -->
<svg version="1.1" id="Layer_1" xmlns="http://www.w3.org/2000/svg" xmlns:xlink="http://www.w3.org/1999/xlink" x="0px" y="0px"
	 viewBox="0 0 512 512" style="enable-background:new 0 0 512 512;" xml:space="preserve">
<circle style="fill:#FFD15D;" cx="256" cy="256" r="256"/>
<path style="fill:#F9B54C;" d="M425.188,307.593l-45.27,21.345L187.906,136.926l-20.111,96.377l-14.367,91.529l176.349,176.349
	c39.252-11.774,76.236-33.154,107.244-64.162c20.583-20.583,36.917-43.804,49.026-68.568L425.188,307.593z"/>
<polygon style="fill:#324A5E;" points="350.813,233.219 326.434,257.598 359.19,290.354 187.906,290.354 187.906,136.926 
	153.428,136.926 153.428,324.832 359.19,324.832 326.432,357.588 350.813,381.967 425.188,307.593 "/>
<polygon style="fill:#2B3B4E;" points="350.813,233.219 326.434,257.598 359.19,290.354 255.426,290.354 255.426,324.832 
	359.19,324.832 326.432,357.588 350.813,381.967 425.188,307.593 "/>
<g>
</g>
<g>
</g>
<g>
</g>
<g>
</g>
<g>
</g>
<g>
</g>
<g>
</g>
<g>
</g>
<g>
</g>
<g>
</g>
<g>
</g>
<g>
</g>
<g>
</g>
<g>
</g>
<g>
</g>
</svg>
