<?xml version="1.0" encoding="iso-8859-1"?>
<!-- Generator: Adobe Illustrator 19.0.0, SVG Export Plug-In . SVG Version: 6.00 Build 0)  -->
<svg version="1.1" id="Layer_1" xmlns="http://www.w3.org/2000/svg" xmlns:xlink="http://www.w3.org/1999/xlink" x="0px" y="0px"
	 viewBox="0 0 512 512" style="enable-background:new 0 0 512 512;" xml:space="preserve">
<circle style="fill:#324A5E;" cx="256" cy="256" r="256"/>
<path style="fill:#2B3B4E;" d="M494.533,349.105L318.095,172.666l-82.206-17.227l-52.867,4.022l-28.748,52.098l163.709,163.709
	l-7.559,6.511l87.376,87.376C441.215,440.217,475.288,398.377,494.533,349.105z"/>
<path style="fill:#FFFFFF;" d="M388.267,297.587l-35.13,17.91c18.435-51.903,3.408-112.1-41.781-148.677
	c-57.263-46.349-141.555-37.467-187.904,19.794l30.82,24.945c32.594-40.269,91.874-46.511,132.137-13.919
	c32.254,26.107,42.653,69.325,28.777,106.191l-18.31-35.914l-35.323,18.01l48.868,95.854l95.853-48.869L388.267,297.587z"/>
<path style="fill:#CFDBE6;" d="M388.267,297.587l-35.13,17.91c18.139-51.067,3.862-110.146-39.641-146.873l-28.177,28.177
	c0.362,0.284,0.734,0.548,1.093,0.84c32.254,26.107,42.653,69.325,28.777,106.191l-18.31-35.914l-35.323,18.01l48.868,95.854
	l95.853-48.869L388.267,297.587z"/>
<g>
</g>
<g>
</g>
<g>
</g>
<g>
</g>
<g>
</g>
<g>
</g>
<g>
</g>
<g>
</g>
<g>
</g>
<g>
</g>
<g>
</g>
<g>
</g>
<g>
</g>
<g>
</g>
<g>
</g>
</svg>
