<?xml version="1.0" encoding="iso-8859-1"?>
<!-- Generator: Adobe Illustrator 19.0.0, SVG Export Plug-In . SVG Version: 6.00 Build 0)  -->
<svg version="1.1" id="Layer_1" xmlns="http://www.w3.org/2000/svg" xmlns:xlink="http://www.w3.org/1999/xlink" x="0px" y="0px"
	 viewBox="0 0 512 512" style="enable-background:new 0 0 512 512;" xml:space="preserve">
<circle style="fill:#B5F1F4;" cx="256" cy="256" r="256"/>
<path style="fill:#4CDBC4;" d="M501.415,329.018l-71.928-73.016l-174.763,0.443l-64.317-64.465l-66.782,44.846l44.839,105.122
	l161.006,159.334C411.919,476.62,476.901,411.532,501.415,329.018z"/>
<polygon style="fill:#324A5E;" points="343.54,170.053 321.596,191.991 370.085,240.485 141.907,240.485 190.405,191.979 
	168.464,170.041 82.516,255.995 168.462,341.947 190.405,320.009 141.917,271.515 370.097,271.515 321.595,320.019 343.538,341.961 
	429.487,256.002 "/>
<polygon style="fill:#2B3B4E;" points="82.522,256 168.462,341.947 190.405,320.009 141.917,271.515 370.097,271.515 
	321.595,320.019 343.538,341.961 429.487,256.002 429.487,256.002 "/>
<g>
</g>
<g>
</g>
<g>
</g>
<g>
</g>
<g>
</g>
<g>
</g>
<g>
</g>
<g>
</g>
<g>
</g>
<g>
</g>
<g>
</g>
<g>
</g>
<g>
</g>
<g>
</g>
<g>
</g>
</svg>
