<?xml version="1.0" encoding="iso-8859-1"?>
<!-- Generator: Adobe Illustrator 19.0.0, SVG Export Plug-In . SVG Version: 6.00 Build 0)  -->
<svg version="1.1" id="Layer_1" xmlns="http://www.w3.org/2000/svg" xmlns:xlink="http://www.w3.org/1999/xlink" x="0px" y="0px"
	 viewBox="0 0 512 512" style="enable-background:new 0 0 512 512;" xml:space="preserve">
<circle style="fill:#E6F3FF;" cx="256" cy="256" r="256"/>
<path style="fill:#CFDBE6;" d="M376.272,195.882l-137.509-8.264l-109.899,40.927l129.284,129.284L217.25,397.61l105.562,105.562
	c87.686-23.645,156.731-92.693,180.369-180.383L376.272,195.882z"/>
<g>
	<path style="fill:#FC6F58;" d="M368.045,276.471l-224.108-0.007l0,0c-8.018,0-15.248,4.83-18.316,12.24
		c-3.069,7.409-1.371,15.938,4.301,21.606l112.094,112.059c3.718,3.718,8.761,5.806,14.019,5.804c5.258,0,10.3-2.089,14.017-5.81
		L382.066,310.31c5.668-5.672,7.363-14.196,4.294-21.604C383.291,281.302,376.063,276.471,368.045,276.471z"/>
	<path style="fill:#FC6F58;" d="M143.955,235.529l224.108,0.007l0,0c8.018,0,15.248-4.83,18.316-12.24
		c3.069-7.409,1.37-15.938-4.301-21.606L269.984,89.631c-3.718-3.718-8.761-5.806-14.019-5.804c-5.258,0-10.3,2.089-14.017,5.81
		L129.934,201.69c-5.668,5.672-7.363,14.196-4.294,21.604C128.709,230.698,135.937,235.529,143.955,235.529z"/>
</g>
<g>
	<path style="fill:#F1543F;" d="M386.36,288.709c-3.069-7.406-10.297-12.236-18.315-12.236l-113.481-0.003v151.633
		c0.488,0.036,0.977,0.072,1.47,0.072c5.258,0,10.3-2.089,14.017-5.81l112.014-112.054
		C387.734,304.642,389.429,296.117,386.36,288.709z"/>
	<path style="fill:#F1543F;" d="M382.08,201.69L269.986,89.631c-3.718-3.718-8.761-5.806-14.019-5.804
		c-0.471,0-0.936,0.036-1.402,0.071v151.636l113.499,0.003l0,0c8.018,0,15.248-4.83,18.316-12.24
		C389.448,215.886,387.751,207.358,382.08,201.69z"/>
</g>
<g>
</g>
<g>
</g>
<g>
</g>
<g>
</g>
<g>
</g>
<g>
</g>
<g>
</g>
<g>
</g>
<g>
</g>
<g>
</g>
<g>
</g>
<g>
</g>
<g>
</g>
<g>
</g>
<g>
</g>
</svg>
