<?xml version="1.0" encoding="iso-8859-1"?>
<!-- Generator: Adobe Illustrator 19.0.0, SVG Export Plug-In . SVG Version: 6.00 Build 0)  -->
<svg version="1.1" id="Layer_1" xmlns="http://www.w3.org/2000/svg" xmlns:xlink="http://www.w3.org/1999/xlink" x="0px" y="0px"
	 viewBox="0 0 512 512" style="enable-background:new 0 0 512 512;" xml:space="preserve">
<circle style="fill:#FFD15D;" cx="256" cy="256" r="256"/>
<path style="fill:#F9B54C;" d="M411.26,298.236l-27.174,28.672L188.047,130.043l-7.939,120.179l-16.401,71.463L339.39,498.097
	c63.176-21.757,115.162-67.539,145.043-126.436L411.26,298.236z"/>
<path style="fill:#324A5E;" d="M408.902,295.907L353.82,252.44c-5.187-4.091-12.255-4.858-18.199-1.979
	c-5.944,2.882-9.719,8.907-9.719,15.513v26.228H193.077v-149.98c0-9.519-7.718-17.239-17.239-17.239s-17.239,7.72-17.239,17.239
	v167.219c0,9.519,7.718,17.239,17.239,17.239h150.063v26.228c0,6.606,3.775,12.631,9.719,15.513c2.389,1.158,4.96,1.726,7.516,1.726
	c3.805,0,7.58-1.258,10.681-3.705l55.082-43.467c4.143-3.269,6.559-8.256,6.559-13.534S413.044,299.177,408.902,295.907z"/>
<path style="fill:#2B3B4E;" d="M408.902,295.907L353.82,252.44c-5.187-4.091-12.255-4.858-18.199-1.979
	c-5.944,2.882-9.719,8.907-9.719,15.513v26.228h-69.327v34.478h69.327v26.228c0,6.606,3.775,12.631,9.719,15.513
	c2.389,1.158,4.96,1.726,7.516,1.726c3.805,0,7.58-1.258,10.681-3.705l55.082-43.467c4.143-3.269,6.559-8.256,6.559-13.534
	S413.044,299.177,408.902,295.907z"/>
<g>
</g>
<g>
</g>
<g>
</g>
<g>
</g>
<g>
</g>
<g>
</g>
<g>
</g>
<g>
</g>
<g>
</g>
<g>
</g>
<g>
</g>
<g>
</g>
<g>
</g>
<g>
</g>
<g>
</g>
</svg>
