<?xml version="1.0" encoding="iso-8859-1"?>
<!-- Generator: Adobe Illustrator 19.0.0, SVG Export Plug-In . SVG Version: 6.00 Build 0)  -->
<svg version="1.1" id="Layer_1" xmlns="http://www.w3.org/2000/svg" xmlns:xlink="http://www.w3.org/1999/xlink" x="0px" y="0px"
	 viewBox="0 0 512.002 512.002" style="enable-background:new 0 0 512.002 512.002;" xml:space="preserve">
<circle style="fill:#FC6F58;" cx="256.001" cy="256" r="256"/>
<path style="fill:#F1543F;" d="M511.949,260.122L394.103,142.277l-144.97,126.967l-72.035,58.328l-29.77-29.77l-27.515,47.266
	l-6.963,54.084l110.823,110.823c10.588,1.334,21.378,2.026,32.328,2.026C396.008,512,509.744,399.603,511.949,260.122z"/>
<polygon style="fill:#FFFFFF;" points="394.103,142.277 369.723,117.898 147.328,340.294 147.328,297.803 112.849,297.803 
	112.849,399.153 214.198,399.153 214.198,364.675 171.707,364.675 "/>
<polygon style="fill:#E6F3FF;" points="382.058,130.231 113.136,399.153 214.198,399.153 214.198,364.675 171.707,364.675 
	394.103,142.277 "/>
<g>
</g>
<g>
</g>
<g>
</g>
<g>
</g>
<g>
</g>
<g>
</g>
<g>
</g>
<g>
</g>
<g>
</g>
<g>
</g>
<g>
</g>
<g>
</g>
<g>
</g>
<g>
</g>
<g>
</g>
</svg>
