<?xml version="1.0" encoding="iso-8859-1"?>
<!-- Generator: Adobe Illustrator 19.0.0, SVG Export Plug-In . SVG Version: 6.00 Build 0)  -->
<svg version="1.1" id="Layer_1" xmlns="http://www.w3.org/2000/svg" xmlns:xlink="http://www.w3.org/1999/xlink" x="0px" y="0px"
	 viewBox="0 0 512 512" style="enable-background:new 0 0 512 512;" xml:space="preserve">
<circle style="fill:#FFD15D;" cx="256" cy="256" r="256"/>
<path style="fill:#F9B54C;" d="M480.201,379.639l-92.922-92.553l-19.347,56.834l-75.8,38.035l94.808,94.053
	C425.925,452.753,458.206,419.438,480.201,379.639z"/>
<path style="fill:#324A5E;" d="M375.075,281.983c-9.519,0-17.239,7.72-17.239,17.239v29.06L156.015,126.461
	c-6.734-6.73-17.646-6.73-24.381,0c-6.732,6.732-6.732,17.648,0,24.381l201.823,201.821h-29.062c-9.519,0-17.239,7.72-17.239,17.239
	s7.72,17.239,17.239,17.239h70.68c9.519,0,17.239-7.72,17.239-17.239v-70.68C392.314,289.702,384.595,281.983,375.075,281.983z"/>
<path style="fill:#2B3B4E;" d="M131.634,126.461L131.634,126.461c-6.732,6.732-6.732,17.648,0,24.381l201.823,201.821h-29.062
	c-9.519,0-17.239,7.72-17.239,17.239s7.72,17.239,17.239,17.239h70.68c4.76,0,9.069-1.931,12.19-5.049L131.634,126.461z"/>
<g>
</g>
<g>
</g>
<g>
</g>
<g>
</g>
<g>
</g>
<g>
</g>
<g>
</g>
<g>
</g>
<g>
</g>
<g>
</g>
<g>
</g>
<g>
</g>
<g>
</g>
<g>
</g>
<g>
</g>
</svg>
