<?xml version="1.0" encoding="iso-8859-1"?>
<!-- Generator: Adobe Illustrator 19.0.0, SVG Export Plug-In . SVG Version: 6.00 Build 0)  -->
<svg version="1.1" id="Layer_1" xmlns="http://www.w3.org/2000/svg" xmlns:xlink="http://www.w3.org/1999/xlink" x="0px" y="0px"
	 viewBox="0 0 512 512" style="enable-background:new 0 0 512 512;" xml:space="preserve">
<circle style="fill:#31BAFD;" cx="256" cy="256" r="256"/>
<path style="fill:#2B9ED8;" d="M508.273,299.679l-60.918-60.918l-230.226,20.314l-69.068-69.177l-38.59,95.982l5.729,31.641
	l189.342,189.862C408.607,487.408,490.263,404.432,508.273,299.679z"/>
<g>
	<path style="fill:#324A5E;" d="M447.355,238.761H151.337v-38.788c0-6.971-4.201-13.259-10.642-15.927
		c-6.442-2.669-13.857-1.193-18.787,3.736l-56.027,56.027c-6.732,6.732-6.732,17.648,0,24.381l56.027,56.027
		c3.3,3.298,7.708,5.049,12.195,5.049c2.22,0,4.46-0.431,6.592-1.314c6.442-2.669,10.642-8.954,10.642-15.927v-38.788h296.019
		V238.761z"/>
</g>
<path style="fill:#2B3B4E;" d="M60.831,256c0,4.411,1.683,8.825,5.049,12.19l56.027,56.027c3.3,3.298,7.708,5.049,12.195,5.049
	c2.22,0,4.46-0.431,6.592-1.314c6.442-2.669,10.642-8.954,10.642-15.927v-38.788h296.019v-17.239H60.831V256z"/>
<g>
</g>
<g>
</g>
<g>
</g>
<g>
</g>
<g>
</g>
<g>
</g>
<g>
</g>
<g>
</g>
<g>
</g>
<g>
</g>
<g>
</g>
<g>
</g>
<g>
</g>
<g>
</g>
<g>
</g>
</svg>
