<?xml version="1.0" encoding="iso-8859-1"?>
<!-- Generator: Adobe Illustrator 19.0.0, SVG Export Plug-In . SVG Version: 6.00 Build 0)  -->
<svg version="1.1" id="Layer_1" xmlns="http://www.w3.org/2000/svg" xmlns:xlink="http://www.w3.org/1999/xlink" x="0px" y="0px"
	 viewBox="0 0 512 512" style="enable-background:new 0 0 512 512;" xml:space="preserve">
<circle style="fill:#31BAFD;" cx="256" cy="256" r="256"/>
<path style="fill:#2B9ED8;" d="M260.965,511.938C400.058,509.288,512,395.724,512,256c0-1.557-0.031-3.105-0.059-4.655
	L386.874,126.278l-28.013,6.249l-66.339,18.539l35.678,35.916L131.508,381.907L260.965,511.938z"/>
<path style="fill:#FFFFFF;" d="M375.075,121.413h-70.68c-9.521,0-17.239,7.72-17.239,17.239s7.718,17.239,17.239,17.239h29.062
	L131.632,357.712c-6.732,6.732-6.734,17.648,0,24.381c3.367,3.365,7.778,5.049,12.19,5.049s8.825-1.684,12.19-5.049l201.825-201.821
	v29.06c0,9.519,7.718,17.239,17.239,17.239s17.239-7.72,17.239-17.239v-70.68C392.314,129.133,384.596,121.413,375.075,121.413z"/>
<path style="fill:#E6F3FF;" d="M386.963,126.188L131.36,381.792c0.093,0.098,0.176,0.203,0.272,0.3
	c3.367,3.365,7.778,5.049,12.19,5.049s8.825-1.684,12.19-5.049l201.825-201.821v29.06c0,9.519,7.718,17.239,17.239,17.239
	c9.521,0,17.239-7.72,17.239-17.239v-70.678C392.314,133.746,390.254,129.327,386.963,126.188z"/>
<g>
</g>
<g>
</g>
<g>
</g>
<g>
</g>
<g>
</g>
<g>
</g>
<g>
</g>
<g>
</g>
<g>
</g>
<g>
</g>
<g>
</g>
<g>
</g>
<g>
</g>
<g>
</g>
<g>
</g>
</svg>
