<?xml version="1.0" encoding="iso-8859-1"?>
<!-- Generator: Adobe Illustrator 19.0.0, SVG Export Plug-In . SVG Version: 6.00 Build 0)  -->
<svg version="1.1" id="Layer_1" xmlns="http://www.w3.org/2000/svg" xmlns:xlink="http://www.w3.org/1999/xlink" x="0px" y="0px"
	 viewBox="0 0 512 512" style="enable-background:new 0 0 512 512;" xml:space="preserve">
<circle style="fill:#90DFAA;" cx="256" cy="256" r="256"/>
<path style="fill:#2C9984;" d="M510.543,283.357L332.912,105.725l-5.799,60.633h-87.774l-72.978,72.98l20.256,149.209
	L305.307,507.24C414.353,485.96,498.631,395.471,510.543,283.357z"/>
<path style="fill:#FFFFFF;" d="M332.912,105.725l-35.323,18.008l17.86,35.031c-18.587-6.625-38.569-9.063-58.775-6.934
	c-35.49,3.737-67.401,21.073-89.853,48.812c-46.347,57.261-37.467,141.555,19.794,187.902l24.947-30.818
	c-40.269-32.594-46.513-91.87-13.921-132.139c15.789-19.506,38.228-31.697,63.186-34.326c14.836-1.564,29.494,0.391,43.049,5.527
	l-35.959,18.332l18.008,35.325l95.854-48.869L332.912,105.725z"/>
<path style="fill:#E6F3FF;" d="M166.821,200.644c-46.347,57.261-37.467,141.555,19.794,187.902l24.947-30.818
	c-39.972-32.354-46.399-90.991-14.612-131.239l-29.262-26.864C167.402,199.97,167.102,200.297,166.821,200.644z"/>
<g>
</g>
<g>
</g>
<g>
</g>
<g>
</g>
<g>
</g>
<g>
</g>
<g>
</g>
<g>
</g>
<g>
</g>
<g>
</g>
<g>
</g>
<g>
</g>
<g>
</g>
<g>
</g>
<g>
</g>
</svg>
