<?xml version="1.0" encoding="iso-8859-1"?>
<!-- Generator: Adobe Illustrator 19.0.0, SVG Export Plug-In . SVG Version: 6.00 Build 0)  -->
<svg version="1.1" id="Layer_1" xmlns="http://www.w3.org/2000/svg" xmlns:xlink="http://www.w3.org/1999/xlink" x="0px" y="0px"
	 viewBox="0 0 512 512" style="enable-background:new 0 0 512 512;" xml:space="preserve">
<circle style="fill:#FD8469;" cx="256" cy="256" r="256"/>
<path style="fill:#FC6F58;" d="M511.595,270.322L379.804,138.533l-133.573,128.96L136.483,377.816l133.782,133.782
	C400.272,504.454,504.423,400.32,511.595,270.322z"/>
<circle style="fill:#FFD15D;" cx="256" cy="256" r="170.667"/>
<path style="fill:#F9B54C;" d="M256,85.333c-0.191,0-0.383,0.007-0.574,0.007v341.318c0.191,0,0.383,0.007,0.574,0.007
	c94.256,0,170.667-76.41,170.667-170.667C426.667,161.744,350.256,85.333,256,85.333z"/>
<polygon style="fill:#324A5E;" points="256.067,340.926 152.383,237.273 180.415,209.232 256.059,284.851 331.642,209.242 
	359.684,237.275 "/>
<polygon style="fill:#2B3B4E;" points="359.684,237.275 331.642,209.242 256.059,284.851 255.426,284.219 255.426,340.285 
	256.067,340.926 "/>
<g>
</g>
<g>
</g>
<g>
</g>
<g>
</g>
<g>
</g>
<g>
</g>
<g>
</g>
<g>
</g>
<g>
</g>
<g>
</g>
<g>
</g>
<g>
</g>
<g>
</g>
<g>
</g>
<g>
</g>
</svg>
