<?xml version="1.0" encoding="iso-8859-1"?>
<!-- Generator: Adobe Illustrator 19.0.0, SVG Export Plug-In . SVG Version: 6.00 Build 0)  -->
<svg version="1.1" id="Layer_1" xmlns="http://www.w3.org/2000/svg" xmlns:xlink="http://www.w3.org/1999/xlink" x="0px" y="0px"
	 viewBox="0 0 512 512" style="enable-background:new 0 0 512 512;" xml:space="preserve">
<circle style="fill:#F4E3C3;" cx="256" cy="256" r="256"/>
<path style="fill:#FED8B2;" d="M340.04,497.642c81.237-27.931,144.1-95.615,165.138-180.005L387.236,197.635l-46.385,34.499
	l-44.315,35.656l19.899,20.246l-42.474,37.186L156.379,205.588l-32.449,30.086l62.483,63.572l-21.754,19.951L340.04,497.642z"/>
<path style="fill:#D83E20;" d="M419.163,299.342L385.939,197.01l-102.335,33.225l12.245,37.712l38.355-12.454
	c-14.941,32.992-48.197,55.27-85.538,55.267c-3.274,0-6.585-0.172-9.912-0.522c-24.957-2.629-47.397-14.82-63.186-34.326
	c-15.789-19.506-23.037-43.994-20.408-68.953l-39.431-4.153c-7.718,73.264,45.608,139.145,118.872,146.863
	c4.736,0.5,9.437,0.743,14.096,0.743c52.233,0,98.85-30.661,120.58-76.322l12.174,37.497L419.163,299.342z"/>
<path style="fill:#C1321F;" d="M385.939,197.01l-102.335,33.225l12.245,37.712l38.355-12.454
	c-14.941,32.992-48.197,55.27-85.538,55.267c-2.588,0-5.201-0.14-7.825-0.359l-7.411,39.114c0.393,0.045,0.777,0.112,1.171,0.153
	c4.736,0.5,9.437,0.743,14.096,0.743c52.233,0,98.85-30.661,120.58-76.322l12.174,37.497l37.712-12.245L385.939,197.01z"/>
<g>
</g>
<g>
</g>
<g>
</g>
<g>
</g>
<g>
</g>
<g>
</g>
<g>
</g>
<g>
</g>
<g>
</g>
<g>
</g>
<g>
</g>
<g>
</g>
<g>
</g>
<g>
</g>
<g>
</g>
</svg>
