<?xml version="1.0" encoding="iso-8859-1"?>
<!-- Generator: Adobe Illustrator 19.0.0, SVG Export Plug-In . SVG Version: 6.00 Build 0)  -->
<svg version="1.1" id="Layer_1" xmlns="http://www.w3.org/2000/svg" xmlns:xlink="http://www.w3.org/1999/xlink" x="0px" y="0px"
	 viewBox="0 0 512 512" style="enable-background:new 0 0 512 512;" xml:space="preserve">
<circle style="fill:#CFDBE6;" cx="256" cy="256" r="256"/>
<path style="fill:#B8C9D9;" d="M508.357,299.17l-74.135-74.135l-65.145,54.624L219.062,129.643l-80.058,101.011l27.684,131.229
	l144.2,144.2C412.084,483.971,490.887,402.022,508.357,299.17z"/>
<path style="fill:#324A5E;" d="M431.644,222.889l-64.577-44.753c-4.989-3.456-11.285-4.439-17.089-2.663
	c-5.804,1.776-10.474,6.11-12.678,11.764l-28.513,73.214c-2.758,7.078-1.226,15.112,3.941,20.68
	c3.81,4.106,9.104,6.341,14.534,6.341c1.934,0,3.886-0.284,5.794-0.867l21.559-6.592c-6.904,33.889-31.661,63.076-66.994,73.878
	c-51.372,15.705-105.944-13.31-121.649-64.683s13.31-105.943,64.683-121.647l-11.593-37.917
	c-35.014,10.704-63.762,34.404-80.951,66.731s-20.759,69.415-10.056,104.427c18.032,58.978,72.463,97.015,131.158,97.009
	c13.238,0,26.702-1.938,40.001-6.003c56.723-17.342,94.06-68.367,96.828-124.463l30.105-9.204
	c7.265-2.222,12.622-8.399,13.791-15.905C441.11,234.73,437.888,227.216,431.644,222.889z"/>
<path style="fill:#2B3B4E;" d="M431.644,222.889l-64.577-44.753c-4.989-3.456-11.285-4.439-17.089-2.663
	c-5.804,1.776-10.474,6.11-12.678,11.764l-28.513,73.214c-2.758,7.078-1.226,15.112,3.941,20.68
	c3.81,4.106,9.104,6.341,14.534,6.341c1.934,0,3.886-0.284,5.794-0.867l21.559-6.592c-6.904,33.889-31.661,63.076-66.994,73.878
	c-11.302,3.455-22.757,4.741-33.92,4.106V397.7c1.833,0.074,3.67,0.112,5.511,0.112c13.238,0,26.702-1.938,40.001-6.003
	c56.723-17.342,94.06-68.367,96.828-124.463l30.105-9.204c7.265-2.222,12.622-8.399,13.791-15.905
	C441.11,234.73,437.888,227.216,431.644,222.889z"/>
<g>
</g>
<g>
</g>
<g>
</g>
<g>
</g>
<g>
</g>
<g>
</g>
<g>
</g>
<g>
</g>
<g>
</g>
<g>
</g>
<g>
</g>
<g>
</g>
<g>
</g>
<g>
</g>
<g>
</g>
</svg>
