<?xml version="1.0" encoding="iso-8859-1"?>
<!-- Generator: Adobe Illustrator 19.0.0, SVG Export Plug-In . SVG Version: 6.00 Build 0)  -->
<svg version="1.1" id="Layer_1" xmlns="http://www.w3.org/2000/svg" xmlns:xlink="http://www.w3.org/1999/xlink" x="0px" y="0px"
	 viewBox="0 0 512 512" style="enable-background:new 0 0 512 512;" xml:space="preserve">
<circle style="fill:#324A5E;" cx="256" cy="256" r="256"/>
<path style="fill:#2B3B4E;" d="M257.464,163.04l-59.971,66.169l-40.007,33.713l219.657,218.645
	c42.201-22.712,77.3-56.915,101.1-98.426L257.464,163.04z"/>
<g>
	<path style="fill:#FFD15D;" d="M364.856,345.991L231.6,212.735l25.598-25.598c4.67-4.672,6.261-11.6,4.096-17.842
		c-2.165-6.242-7.708-10.695-14.269-11.469l-85.675-10.095c-5.242-0.621-10.478,1.2-14.208,4.93
		c-3.732,3.732-5.548,8.968-4.93,14.208l10.097,85.673c0.772,6.561,5.227,12.102,11.467,14.267c1.85,0.641,3.756,0.953,5.649,0.953
		c4.498,0,8.906-1.76,12.193-5.049l25.598-25.598l133.256,133.256L364.856,345.991z"/>
</g>
<path style="fill:#F9B54C;" d="M147.63,152.226c-0.16,0.148-0.331,0.279-0.486,0.434c-3.732,3.732-5.548,8.968-4.93,14.208
	l10.097,85.673c0.772,6.561,5.227,12.102,11.467,14.267c1.85,0.641,3.756,0.953,5.649,0.953c4.498,0,8.906-1.76,12.193-5.049
	l25.598-25.598l133.256,133.256l12.65-12.65L147.63,152.226z"/>
<g>
</g>
<g>
</g>
<g>
</g>
<g>
</g>
<g>
</g>
<g>
</g>
<g>
</g>
<g>
</g>
<g>
</g>
<g>
</g>
<g>
</g>
<g>
</g>
<g>
</g>
<g>
</g>
<g>
</g>
</svg>
