<?xml version="1.0" encoding="iso-8859-1"?>
<!-- Generator: Adobe Illustrator 19.0.0, SVG Export Plug-In . SVG Version: 6.00 Build 0)  -->
<svg version="1.1" id="Layer_1" xmlns="http://www.w3.org/2000/svg" xmlns:xlink="http://www.w3.org/1999/xlink" x="0px" y="0px"
	 viewBox="0 0 512 512" style="enable-background:new 0 0 512 512;" xml:space="preserve">
<circle style="fill:#FFD15D;" cx="256" cy="256" r="256"/>
<path style="fill:#F9B54C;" d="M511.983,257.434L380.116,125.568L233.593,265.194L126.802,381.612l130.372,130.372
	C397.538,511.354,511.21,397.767,511.983,257.434z"/>
<path style="fill:#FFFFFF;" d="M393.914,153.714v204.571c0,19.677-15.951,35.628-35.628,35.628H153.715
	c-19.677,0-35.628-15.951-35.628-35.628V153.714c0-19.677,15.951-35.628,35.628-35.628h204.571
	C377.963,118.088,393.914,134.039,393.914,153.714z"/>
<path style="fill:#E6F3FF;" d="M358.286,118.088h-102.86v275.825h102.86c19.677,0,35.628-15.951,35.628-35.628V153.714
	C393.914,134.039,377.963,118.088,358.286,118.088z"/>
<polygon style="fill:#324A5E;" points="256.002,330.262 149.535,223.792 177.571,195.756 256.002,274.189 334.431,195.758 
	362.467,223.796 "/>
<polygon style="fill:#2B3B4E;" points="362.467,223.796 334.431,195.758 256.002,274.189 255.428,273.615 255.428,329.688 
	256.002,330.262 "/>
<g>
</g>
<g>
</g>
<g>
</g>
<g>
</g>
<g>
</g>
<g>
</g>
<g>
</g>
<g>
</g>
<g>
</g>
<g>
</g>
<g>
</g>
<g>
</g>
<g>
</g>
<g>
</g>
<g>
</g>
</svg>
