<?xml version="1.0" encoding="iso-8859-1"?>
<!-- Generator: Adobe Illustrator 19.0.0, SVG Export Plug-In . SVG Version: 6.00 Build 0)  -->
<svg version="1.1" id="Layer_1" xmlns="http://www.w3.org/2000/svg" xmlns:xlink="http://www.w3.org/1999/xlink" x="0px" y="0px"
	 viewBox="0 0 512 512" style="enable-background:new 0 0 512 512;" xml:space="preserve">
<circle style="fill:#F4E3C3;" cx="256" cy="256" r="256"/>
<path style="fill:#FED8B2;" d="M507.801,302.368l-90.979-92.051l-39.715,0.719H165.783l-25.536,167.362l133.789,132.961
	C391.444,503.186,487.036,415.854,507.801,302.368z"/>
<polygon style="fill:#FC6F58;" points="345.157,138.652 320.776,163.031 350.822,193.077 140.247,193.077 140.247,378.397 
	174.725,378.397 174.725,227.556 350.822,227.556 320.776,257.602 345.157,281.981 416.821,210.316 "/>
<polygon style="fill:#F1543F;" points="345.157,138.652 320.776,163.031 350.822,193.077 254.276,193.077 254.276,227.556 
	350.822,227.556 320.776,257.602 345.157,281.981 416.821,210.316 "/>
<g>
</g>
<g>
</g>
<g>
</g>
<g>
</g>
<g>
</g>
<g>
</g>
<g>
</g>
<g>
</g>
<g>
</g>
<g>
</g>
<g>
</g>
<g>
</g>
<g>
</g>
<g>
</g>
<g>
</g>
</svg>
