<?xml version="1.0" encoding="iso-8859-1"?>
<!-- Generator: Adobe Illustrator 19.0.0, SVG Export Plug-In . SVG Version: 6.00 Build 0)  -->
<svg version="1.1" id="Layer_1" xmlns="http://www.w3.org/2000/svg" xmlns:xlink="http://www.w3.org/1999/xlink" x="0px" y="0px"
	 viewBox="0 0 512 512" style="enable-background:new 0 0 512 512;" xml:space="preserve">
<circle style="fill:#FD8469;" cx="256" cy="256" r="256"/>
<path style="fill:#FC6F58;" d="M268.55,511.691c61.271-2.989,121.675-27.877,168.469-74.671c27.45-27.45,47.345-59.587,59.721-93.83
	l-91.395-91.395L253.128,138.774L174.402,217.5l-39.712,62.333l46.385,46.385l-46.383,51.615L268.55,511.691z"/>
<g>
	<polygon style="fill:#324A5E;" points="377.31,279.833 256,158.541 134.69,279.831 106.656,251.792 256,102.471 405.344,251.794 	
		"/>
	<polygon style="fill:#324A5E;" points="377.308,377.834 256,256.54 134.69,377.832 106.656,349.794 256,200.471 405.344,349.794 	
		"/>
</g>
<g>
	<polygon style="fill:#2B3B4E;" points="256,102.471 405.344,251.794 377.31,279.833 256,158.541 	"/>
	<polygon style="fill:#2B3B4E;" points="256,200.471 405.344,349.794 377.308,377.834 256,256.54 	"/>
</g>
<g>
</g>
<g>
</g>
<g>
</g>
<g>
</g>
<g>
</g>
<g>
</g>
<g>
</g>
<g>
</g>
<g>
</g>
<g>
</g>
<g>
</g>
<g>
</g>
<g>
</g>
<g>
</g>
<g>
</g>
</svg>
