<?xml version="1.0" encoding="iso-8859-1"?>
<!-- Generator: Adobe Illustrator 19.0.0, SVG Export Plug-In . SVG Version: 6.00 Build 0)  -->
<svg version="1.1" id="Layer_1" xmlns="http://www.w3.org/2000/svg" xmlns:xlink="http://www.w3.org/1999/xlink" x="0px" y="0px"
	 viewBox="0 0 512 512" style="enable-background:new 0 0 512 512;" xml:space="preserve">
<circle style="fill:#B5F1F4;" cx="256" cy="256" r="256"/>
<path style="fill:#84DBFF;" d="M437.019,437.02c27.445-27.445,47.338-59.576,59.714-93.815L409.529,256l-54.396,43.603L311.529,256
	l-60.163,52.253l-89.16,97.09l106.348,106.348C329.825,508.7,390.225,483.812,437.019,437.02z"/>
<g>
	<polygon style="fill:#324A5E;" points="260.205,405.344 232.167,377.31 353.459,256 232.169,134.69 260.206,106.656 409.529,256 	
		"/>
	<polygon style="fill:#324A5E;" points="162.206,405.344 134.166,377.308 255.46,256 134.168,134.69 162.207,106.656 311.529,256 	
		"/>
</g>
<g>
	<polygon style="fill:#2B3B4E;" points="409.529,256 260.205,405.344 232.167,377.31 353.459,256 	"/>
	<polygon style="fill:#2B3B4E;" points="311.529,256 162.206,405.344 134.166,377.308 255.46,256 	"/>
</g>
<g>
</g>
<g>
</g>
<g>
</g>
<g>
</g>
<g>
</g>
<g>
</g>
<g>
</g>
<g>
</g>
<g>
</g>
<g>
</g>
<g>
</g>
<g>
</g>
<g>
</g>
<g>
</g>
<g>
</g>
</svg>
