<?xml version="1.0" encoding="iso-8859-1"?>
<!-- Generator: Adobe Illustrator 19.0.0, SVG Export Plug-In . SVG Version: 6.00 Build 0)  -->
<svg version="1.1" id="Layer_1" xmlns="http://www.w3.org/2000/svg" xmlns:xlink="http://www.w3.org/1999/xlink" x="0px" y="0px"
	 viewBox="0 0 512 512" style="enable-background:new 0 0 512 512;" xml:space="preserve">
<circle style="fill:#90DFAA;" cx="256" cy="256" r="256"/>
<g>
	<path style="fill:#2C9984;" d="M291.461,509.535c51.579-7.175,101.385-30.08,141.671-68.724L234.786,242.467l-19.051,7.287
		l-160.57,23.485L291.461,509.535z"/>
	<path style="fill:#2C9984;" d="M509.535,291.461l-52.7-52.7l-38.164,28.677l-65.021-65.021l-7.878,30.149l-31.572,66.045
		l130.894,129.939C481.149,389.101,502.629,341.102,509.535,291.461z"/>
</g>
<g>
	<path style="fill:#FFFFFF;" d="M234.786,242.467l-53.095-41.898c-5.184-4.091-12.252-4.863-18.199-1.979
		c-5.944,2.881-9.719,8.907-9.719,15.513v24.657H55.165v34.478h98.609v24.659c0,6.606,3.774,12.631,9.719,15.513
		c2.391,1.158,4.961,1.726,7.516,1.726c3.806,0,7.58-1.258,10.681-3.706l53.095-41.898c4.143-3.268,6.561-8.256,6.561-13.533
		S238.93,245.736,234.786,242.467z"/>
	<path style="fill:#FFFFFF;" d="M358.226,238.761v-24.659c0-6.606-3.774-12.631-9.719-15.513
		c-5.944-2.879-13.012-2.115-18.199,1.979l-53.095,41.898c-4.143,3.269-6.561,8.256-6.561,13.533s2.417,10.264,6.561,13.533
		l53.095,41.898c3.101,2.448,6.875,3.706,10.68,3.706c2.557,0,5.129-0.569,7.518-1.726c5.944-2.881,9.719-8.907,9.719-15.513
		v-24.657h98.609v-34.478H358.226z"/>
</g>
<g>
	<path style="fill:#CFDBE6;" d="M55.165,273.239h98.609v24.659c0,6.606,3.774,12.631,9.719,15.513
		c2.391,1.158,4.961,1.726,7.516,1.726c3.806,0,7.58-1.258,10.681-3.706l53.095-41.898c4.143-3.268,6.561-8.256,6.561-13.533H55.165
		V273.239z"/>
	<path style="fill:#CFDBE6;" d="M270.653,256c0,5.277,2.417,10.262,6.561,13.533l53.095,41.898c3.101,2.448,6.875,3.706,10.68,3.706
		c2.557,0,5.129-0.569,7.518-1.726c5.944-2.881,9.719-8.907,9.719-15.513v-24.659h98.609V256H270.653z"/>
</g>
<g>
</g>
<g>
</g>
<g>
</g>
<g>
</g>
<g>
</g>
<g>
</g>
<g>
</g>
<g>
</g>
<g>
</g>
<g>
</g>
<g>
</g>
<g>
</g>
<g>
</g>
<g>
</g>
<g>
</g>
</svg>
