<?xml version="1.0" encoding="iso-8859-1"?>
<!-- Generator: Adobe Illustrator 19.0.0, SVG Export Plug-In . SVG Version: 6.00 Build 0)  -->
<svg version="1.1" id="Layer_1" xmlns="http://www.w3.org/2000/svg" xmlns:xlink="http://www.w3.org/1999/xlink" x="0px" y="0px"
	 viewBox="0 0 512 512" style="enable-background:new 0 0 512 512;" xml:space="preserve">
<circle style="fill:#324A5E;" cx="256" cy="256" r="256"/>
<g>
	<path style="fill:#2B3B4E;" d="M444.535,429.161c27.638-30.075,48.166-66.779,58.939-107.456l-80.36-81.22l-18.822,25.176
		l-49.75-49.547l-37.054,22.647l15.084,79.06L444.535,429.161z"/>
	<path style="fill:#2B3B4E;" d="M429.794,443.945L241.852,256.003l-69.92-2.907l-83.044,18.418l230.945,232.46
		C361.546,493.27,399.139,472.305,429.794,443.945z"/>
</g>
<g>
	<polygon style="fill:#FFFFFF;" points="423.114,240.485 330.171,240.485 354.544,216.112 332.602,194.17 270.774,255.997 
		332.572,317.821 354.544,295.879 330.18,271.515 423.114,271.515 	"/>
	<polygon style="fill:#FFFFFF;" points="158.056,216.119 182.42,240.485 88.888,240.485 88.888,271.515 182.427,271.515 
		158.055,295.888 179.996,317.83 241.824,256.003 179.998,194.177 	"/>
</g>
<g>
	<polygon style="fill:#E6F3FF;" points="423.114,256.574 271.353,256.574 332.572,317.821 354.544,295.879 330.18,271.515 
		423.114,271.515 	"/>
	<polygon style="fill:#E6F3FF;" points="88.888,256.186 88.888,271.515 182.427,271.515 158.055,295.888 179.996,317.83 
		241.852,256.003 	"/>
</g>
<g>
</g>
<g>
</g>
<g>
</g>
<g>
</g>
<g>
</g>
<g>
</g>
<g>
</g>
<g>
</g>
<g>
</g>
<g>
</g>
<g>
</g>
<g>
</g>
<g>
</g>
<g>
</g>
<g>
</g>
</svg>
